<?xml version="1.0" standalone="no"?><!DOCTYPE svg PUBLIC "-//W3C//DTD SVG 1.1//EN" "http://www.w3.org/Graphics/SVG/1.1/DTD/svg11.dtd"><svg t="1548307789109" class="icon" style="" viewBox="0 0 1024 1024" version="1.1" xmlns="http://www.w3.org/2000/svg" p-id="2320" xmlns:xlink="http://www.w3.org/1999/xlink" width="200" height="200"><defs><style type="text/css"></style></defs><path d="M927.744 741.376c-6.144 10.24-18.432 14.336-28.672 8.192-10.24-6.144-14.336-18.432-8.192-28.672 118.784-212.992 40.96-481.28-172.032-598.016s-481.28-40.96-598.016 172.032-40.96 481.28 172.032 598.016c153.6 86.016 339.968 69.632 479.232-32.768 8.192-6.144 22.528-4.096 28.672 4.096 6.144 8.192 4.096 22.528-4.096 28.672-151.552 112.64-356.352 129.024-522.24 36.864-233.472-129.024-317.44-421.888-188.416-653.312 129.024-233.472 421.888-317.44 653.312-188.416 233.472 126.976 317.44 419.84 188.416 653.312z m-385.024-86.016c0 12.288-8.192 20.48-20.48 20.48s-20.48-8.192-20.48-20.48c0-59.392 22.528-102.4 61.44-141.312 8.192-8.192 40.96-36.864 47.104-43.008 16.384-20.48 26.624-45.056 26.624-71.68 0-61.44-51.2-112.64-112.64-112.64s-112.64 51.2-112.64 112.64c0 12.288-8.192 20.48-20.48 20.48s-20.48-8.192-20.48-20.48c0-83.968 69.632-153.6 153.6-153.6s153.6 69.632 153.6 153.6c0 36.864-12.288 69.632-34.816 98.304-6.144 8.192-43.008 38.912-49.152 45.056-34.816 32.768-51.2 65.536-51.2 112.64z m-20.48 163.84c-16.384 0-30.72-14.336-30.72-30.72s14.336-30.72 30.72-30.72 30.72 14.336 30.72 30.72-14.336 30.72-30.72 30.72z" p-id="2321" fill="#FD983C"></path></svg>