<?xml version="1.0" standalone="no"?><!DOCTYPE svg PUBLIC "-//W3C//DTD SVG 1.1//EN" "http://www.w3.org/Graphics/SVG/1.1/DTD/svg11.dtd"><svg t="1548307915852" class="icon" style="" viewBox="0 0 1024 1024" version="1.1" xmlns="http://www.w3.org/2000/svg" p-id="3082" xmlns:xlink="http://www.w3.org/1999/xlink" width="200" height="200"><defs><style type="text/css"></style></defs><path d="M522.24 851.968l-335.872-354.304s-4.096-4.096-8.192-10.24c-6.144-8.192-12.288-18.432-18.432-30.72-34.816-65.536-38.912-135.168 2.048-200.704 20.48-34.816 47.104-57.344 77.824-71.68 38.912-18.432 81.92-22.528 118.784-16.384 6.144 2.048 10.24 2.048 12.288 2.048 10.24 4.096 22.528-2.048 24.576-14.336 4.096-10.24-2.048-22.528-14.336-24.576-4.096 0-10.24-2.048-16.384-4.096-45.056-8.192-96.256-4.096-143.36 20.48-36.864 18.432-67.584 47.104-94.208 88.064-51.2 79.872-45.056 163.84-4.096 241.664 12.288 22.528 22.528 38.912 30.72 49.152l352.256 370.688 14.336 14.336 374.784-374.784c24.576-24.576 49.152-79.872 55.296-135.168 8.192-73.728-14.336-145.408-71.68-202.752-104.448-104.448-227.328-90.112-333.824-20.48-20.48 14.336-57.344 49.152-106.496 100.352l-12.288 12.288c-24.576 24.576-49.152 51.2-73.728 77.824-8.192 10.24-16.384 18.432-24.576 26.624-4.096 4.096-8.192 8.192-8.192 10.24-8.192 8.192-6.144 20.48 2.048 28.672 8.192 8.192 20.48 6.144 28.672-2.048 2.048-2.048 4.096-4.096 8.192-10.24 6.144-8.192 14.336-16.384 24.576-26.624 24.576-26.624 49.152-53.248 73.728-77.824l12.288-12.288c47.104-49.152 83.968-81.92 100.352-94.208 92.16-61.44 194.56-73.728 282.624 14.336 49.152 49.152 67.584 108.544 61.44 169.984-6.144 47.104-24.576 92.16-43.008 110.592l-307.2 303.104-49.152 49.152 8.192-6.144z" p-id="3083" fill="#FC9D30"></path></svg>