<?xml version="1.0" standalone="no"?><!DOCTYPE svg PUBLIC "-//W3C//DTD SVG 1.1//EN" "http://www.w3.org/Graphics/SVG/1.1/DTD/svg11.dtd"><svg t="1548307920213" class="icon" style="" viewBox="0 0 1024 1024" version="1.1" xmlns="http://www.w3.org/2000/svg" p-id="3245" xmlns:xlink="http://www.w3.org/1999/xlink" width="200" height="200"><defs><style type="text/css"></style></defs><path d="M638.976 786.432l-286.72-139.264c-32.768 40.96-81.92 67.584-137.216 67.584-96.256 0-174.08-77.824-174.08-174.08s77.824-174.08 174.08-174.08c53.248 0 98.304 22.528 131.072 59.392l278.528-159.744c-18.432-49.152-16.384-106.496 10.24-155.648 49.152-88.064 161.792-120.832 249.856-71.68 81.92 45.056 116.736 147.456 79.872 233.472-4.096 10.24-16.384 14.336-26.624 10.24-10.24-4.096-14.336-16.384-10.24-26.624 28.672-67.584 2.048-145.408-61.44-182.272-69.632-38.912-155.648-14.336-194.56 55.296-38.912 69.632-14.336 155.648 55.296 194.56 38.912 22.528 83.968 24.576 124.928 6.144 10.24-4.096 22.528 0 26.624 10.24 4.096 10.24 0 22.528-10.24 26.624-51.2 22.528-110.592 18.432-161.792-8.192-26.624-14.336-47.104-34.816-63.488-57.344L368.64 460.8c12.288 24.576 20.48 51.2 20.48 79.872 0 26.624-6.144 49.152-16.384 71.68l280.576 135.168c28.672-55.296 88.064-94.208 155.648-94.208 96.256 0 174.08 77.824 174.08 174.08s-77.824 174.08-174.08 174.08-174.08-77.824-174.08-174.08c0-14.336 2.048-26.624 4.096-40.96z m-423.936-112.64c73.728 0 133.12-59.392 133.12-133.12s-59.392-133.12-133.12-133.12-133.12 59.392-133.12 133.12 59.392 133.12 133.12 133.12z m593.92 286.72c73.728 0 133.12-59.392 133.12-133.12s-59.392-133.12-133.12-133.12-133.12 59.392-133.12 133.12 59.392 133.12 133.12 133.12z" p-id="3246" fill="#FC9D30"></path></svg>