<?xml version="1.0" standalone="no"?>
<!DOCTYPE svg PUBLIC "-//W3C//DTD SVG 1.1//EN" "http://www.w3.org/Graphics/SVG/1.1/DTD/svg11.dtd" >
<svg xmlns="http://www.w3.org/2000/svg">
<metadata>Generated by IcoMoon</metadata>
<defs>
<font id="icomoon" horiz-adv-x="1024">
<font-face units-per-em="1024" ascent="960" descent="-64" />
<missing-glyph horiz-adv-x="1024" />
<glyph unicode="&#x20;" horiz-adv-x="512" d="" />
<glyph unicode="&#xe900;" glyph-name="about" d="M480 896c-262.4 0-480-217.6-480-480s217.6-480 480-480c262.4 0 480 217.6 480 480s-217.6 480-480 480zM480 0c-230.4 0-416 185.6-416 416s185.6 416 416 416 416-185.6 416-416-185.6-416-416-416zM480 384c19.2 0 32 12.8 32 32v256c0 19.2-12.8 32-32 32s-32-12.8-32-32v-256c0-19.2 12.8-32 32-32zM480 320c-38.4 0-64-25.6-64-64s25.6-64 64-64 64 25.6 64 64-25.6 64-64 64z" />
<glyph unicode="&#xe901;" glyph-name="add" d="M832 512h-256v256c0 35.328-28.672 64-64 64s-64-28.672-64-64v-256h-256c-35.328 0-64-28.672-64-64s28.672-64 64-64h256v-256c0-35.392 28.672-64 64-64s64 28.608 64 64v256h256c35.392 0 64 28.672 64 64s-28.608 64-64 64z" />
<glyph unicode="&#xe902;" glyph-name="add-aolder" d="M608 384h-96v96c0 19.2-12.8 32-32 32s-32-12.8-32-32v-96h-96c-19.2 0-32-12.8-32-32s12.8-32 32-32h96v-96c0-19.2 12.8-32 32-32s32 12.8 32 32v96h96c19.2 0 32 12.8 32 32s-12.8 32-32 32zM800 768h-307.2l-115.2 121.6c-6.4 0-19.2 6.4-25.6 6.4h-224c-70.4 0-128-57.6-128-128v-672c0-89.6 70.4-160 160-160h640c89.6 0 160 70.4 160 160v512c0 89.6-70.4 160-160 160zM128 832h211.2l64-64h-339.2c0 38.4 25.6 64 64 64zM896 96c0-51.2-44.8-96-96-96h-640c-51.2 0-96 44.8-96 96v608h736c51.2 0 96-44.8 96-96v-512z" />
<glyph unicode="&#xe903;" glyph-name="add-multiselect" d="M736 320c-17.664 0-32-14.336-32-32v-128c0-52.928-43.072-96-96-96h-384c-52.928 0-96 43.072-96 96v384c0 52.928 43.072 96 96 96h128c17.664 0 32 14.336 32 32s-14.336 32-32 32h-128c-88.192 0-160-71.808-160-160v-384c0-88.256 71.808-160 160-160h384c88.256 0 160 71.744 160 160v128c0 17.664-14.336 32-32 32zM928 704h-160v160c0 17.664-14.336 32-32 32s-32-14.336-32-32v-160h-160c-17.664 0-32-14.336-32-32s14.336-32 32-32h160v-160c0-17.664 14.336-32 32-32s32 14.336 32 32v160h160c17.664 0 32 14.336 32 32s-14.336 32-32 32z" />
<glyph unicode="&#xe904;" glyph-name="add-notification" d="M992 192h-160v160c0 17.664-14.336 32-32 32s-32-14.336-32-32v-160h-160c-17.664 0-32-14.336-32-32s14.336-32 32-32h160v-160c0-17.664 14.336-32 32-32s32 14.336 32 32v160h160c17.664 0 32 14.336 32 32s-14.336 32-32 32zM597.824 279.296c6.592 16.384-1.408 35.008-17.792 41.536l-152.128 60.8c-10.752 4.416-22.912 2.432-31.936-4.672-9.024-7.232-13.376-18.816-11.52-30.208l51.584-309.568c1.536-9.344-0.96-18.56-7.104-25.856s-14.912-11.328-24.512-11.328h-126.208c-15.744 0-28.992 11.264-31.552 26.752l-55.104 330.496c-2.56 15.424-15.872 26.752-31.552 26.752-52.928 0-96 43.072-96 96v192c0 52.928 43.072 96 96 96h157.376c69.44 0 137.408 13.12 202.048 38.912l184.576 73.856v-400.768c0-17.664 14.336-32 32-32s32 14.336 32 32v288c105.856 0 192-86.144 192-192 0-67.84-35.392-129.344-94.656-164.48-15.232-9.024-20.224-28.672-11.2-43.84 5.952-10.112 16.64-15.68 27.52-15.68 5.568 0 11.2 1.408 16.32 4.48 78.912 46.848 126.016 128.896 126.016 219.52 0 141.184-114.816 256-256 256v96c0 10.624-5.248 20.544-14.080 26.496s-19.968 7.168-29.824 3.2l-228.416-91.328c-57.024-22.784-116.992-34.368-178.304-34.368h-157.376c-88.192 0-160-71.808-160-160v-192c0-78.848 57.344-144.576 132.48-157.632l51.008-306.112c7.744-46.528 47.552-80.256 94.72-80.256h126.208c28.288 0 55.040 12.352 73.28 33.984 18.304 21.568 26.048 49.92 21.376 77.76l-42.24 253.44 99.328-39.68c16.384-6.528 35.072 1.408 41.664 17.792z" />
<glyph unicode="&#xe905;" glyph-name="add-qna" d="M736 320c-17.664 0-32-14.336-32-32 0-52.928-43.072-96-96-96h-177.408c-56.384 0-112.832-13.312-163.136-38.528l-139.456-69.696v460.224c0 52.928 43.072 96 96 96h128c17.664 0 32 14.336 32 32s-14.336 32-32 32h-128c-88.192 0-160-71.808-160-160v-512c0-11.072 5.76-21.376 15.168-27.264 5.12-3.136 11.008-4.736 16.832-4.736 4.928 0 9.792 1.152 14.336 3.392l185.728 92.864c41.472 20.736 88 31.744 134.528 31.744h177.408c88.256 0 160 71.744 160 160 0 17.664-14.336 32-32 32zM928 704h-160v160c0 17.664-14.336 32-32 32s-32-14.336-32-32v-160h-160c-17.664 0-32-14.336-32-32s14.336-32 32-32h160v-160c0-17.664 14.336-32 32-32s32 14.336 32 32v160h160c17.664 0 32 14.336 32 32s-14.336 32-32 32z" />
<glyph unicode="&#xe906;" glyph-name="add-radio" d="M736 319.36c-17.024 3.648-34.176-7.68-37.76-25.024-27.136-133.44-145.792-230.336-282.24-230.336-158.784 0-288 129.216-288 288 0 136.448 96.896 255.104 230.4 282.24 17.28 3.52 28.48 20.416 24.96 37.76-3.456 17.28-20.096 28.032-37.76 24.96-163.136-33.152-281.6-178.24-281.6-344.96 0-194.048 157.888-352 352-352 166.72 0 311.808 118.464 345.024 281.6 3.456 17.344-7.68 34.24-25.024 37.76zM928 704h-160v160c0 17.664-14.336 32-32 32s-32-14.336-32-32v-160h-160c-17.664 0-32-14.336-32-32s14.336-32 32-32h160v-160c0-17.664 14.336-32 32-32s32 14.336 32 32v160h160c17.664 0 32 14.336 32 32s-14.336 32-32 32z" />
<glyph unicode="&#xe907;" glyph-name="adult" d="M646.4 486.4c70.4 44.8 121.6 128 121.6 217.6 0 140.8-115.2 256-256 256s-256-115.2-256-256c0-89.6 51.2-172.8 121.6-217.6-147.2-51.2-249.6-192-249.6-358.4v-160c0-19.2 12.8-32 32-32h704c19.2 0 32 12.8 32 32v160c0 166.4-102.4 307.2-249.6 358.4zM320 704c0 108.8 83.2 192 192 192s192-83.2 192-192-83.2-192-192-192-192 83.2-192 192zM652.8 409.6l-140.8-140.8-140.8 140.8c38.4 25.6 89.6 38.4 140.8 38.4s102.4-12.8 140.8-38.4zM832 0h-640v128c0 102.4 51.2 192 121.6 249.6l172.8-172.8c6.4-12.8 19.2-12.8 25.6-12.8s19.2 0 25.6 6.4l172.8 172.8c70.4-51.2 121.6-140.8 121.6-243.2v-128z" />
<glyph unicode="&#xe908;" glyph-name="analysis" d="M495.939 417.080c-7.657 7.328-8.667 18.207-8.667 18.207v302.023c0 14.838-9.891 24.727-24.727 24.727-192.874 0-346.182-153.309-346.182-346.182s153.308-346.182 346.182-346.182c93.965 0 178.035 39.564 242.329 103.855 9.891 9.891 9.891 24.727 0 34.618l-208.935 208.933zM437.818 712.582h4.947v-296.727c0-1.073 0.001-2.078 0.008-3.042l-273.505-42.078c-2.27 14.721-3.45 29.789-3.45 45.119 0 158.256 118.692 281.892 272 296.729zM462.545 119.128c-69.875 0-134.298 24.493-185.142 65.299l169.773 212.216c0.176-0.189 0.345-0.38 0.534-0.569l207.709-207.709c-54.401-44.51-123.636-69.238-192.874-69.238zM541.671 806.546v-331.345c0 0-1.214-14.742 10.011-24.85l232.315-232.315c9.891-9.891 29.671-9.891 39.564 4.945 71.146 107.362 59.348 247.274 59.348 247.274v0c-9.891 103.855-59.345 197.818-133.527 267.055l-24.727 19.782c-44.51 34.618-98.909 59.345-153.308 69.236-29.543 3.862-29.675-19.782-29.675-19.782zM769.165 638.401c29.671-44.509 54.399-93.964 59.345-148.364h-207.709l148.364 148.364zM739.49 677.964l-148.364-148.364v240.123c0 0 80.851-20.611 148.364-91.759zM793.892 272.437l-173.091 173.091h212.655v-4.945c-0.001-64.292-14.836-118.691-39.564-168.145z" />
<glyph unicode="&#xe909;" glyph-name="api" d="M928 256h-108.8l-192 332.8c25.6 19.2 51.2 44.8 51.2 83.2v128c-6.4 51.2-51.2 96-102.4 96h-128c-51.2 0-96-44.8-96-96v-128c0-38.4 19.2-64 51.2-83.2l-192-332.8h-115.2c-51.2 0-96-44.8-96-96v-128c0-51.2 44.8-96 96-96h128c51.2 0 96 44.8 96 96v32h384v-32c0-51.2 44.8-96 96-96h128c51.2 0 96 44.8 96 96v128c0 51.2-44.8 96-96 96zM416 800c0 19.2 12.8 32 32 32h128c19.2 0 32-12.8 32-32v-128c0-19.2-12.8-32-32-32h-128c-19.2 0-32 12.8-32 32v128zM256 32c0-19.2-12.8-32-32-32h-128c-19.2 0-32 12.8-32 32v128c0 19.2 12.8 32 32 32h128c19.2 0 32-12.8 32-32v-128zM320 128v32c0 38.4-19.2 64-51.2 83.2l192 332.8h89.6l192-332.8c-25.6-19.2-51.2-44.8-51.2-83.2v-32h-371.2zM960 32c0-19.2-12.8-32-32-32h-128c-19.2 0-32 12.8-32 32v128c0 19.2 12.8 32 32 32h128c19.2 0 32-12.8 32-32v-128z" />
<glyph unicode="&#xe90a;" glyph-name="approval" d="M928 832h-96v96c0 19.2-12.8 32-32 32s-32-12.8-32-32v-96h-512v96c0 19.2-12.8 32-32 32s-32-12.8-32-32v-96h-96c-51.2 0-96-44.8-96-96v-640c0-51.2 44.8-96 96-96h384c19.2 0 32 12.8 32 32s-12.8 32-32 32h-384c-19.2 0-32 12.8-32 32v640c0 19.2 12.8 32 32 32h832c19.2 0 32-12.8 32-32v-256c0-19.2 12.8-32 32-32s32 12.8 32 32v256c0 51.2-44.8 96-96 96zM902.4 230.4c32 32 57.6 70.4 57.6 121.6 0 89.6-70.4 160-160 160s-160-70.4-160-160c0-51.2 25.6-89.6 57.6-121.6-70.4-38.4-121.6-108.8-121.6-198.4v-64c0-19.2 12.8-32 32-32h384c19.2 0 32 12.8 32 32v64c0 89.6-51.2 160-121.6 198.4zM704 352c0 51.2 44.8 96 96 96s96-44.8 96-96-44.8-96-96-96-96 44.8-96 96zM883.2 166.4l-83.2-64-83.2 64c25.6 12.8 51.2 25.6 83.2 25.6s57.6-6.4 83.2-25.6zM960 0h-320v32c0 32 12.8 64 25.6 89.6l115.2-83.2c6.4-6.4 12.8-6.4 19.2-6.4s12.8 0 19.2 6.4l115.2 83.2c19.2-25.6 25.6-57.6 25.6-89.6v-32zM761.6 595.2c-12.8 12.8-32 12.8-44.8 0l-300.8-262.4-134.4 140.8c-12.8 12.8-32 12.8-44.8 0s-12.8-32 0-44.8l160-160c0-12.8 12.8-12.8 19.2-12.8s12.8 0 19.2 6.4l320 288c12.8 12.8 19.2 32 6.4 44.8z" />
<glyph unicode="&#xe90b;" glyph-name="area-audio" d="M512 320c0-35.346-28.654-64-64-64s-64 28.654-64 64c0 35.346 28.654 64 64 64s64-28.654 64-64zM832 896h-640c-70.72 0-128-57.28-128-128v-640c0-70.72 57.28-128 128-128h640c70.72 0 128 57.28 128 128v640c0 70.72-57.28 128-128 128zM789.888 532.224c-31.68-15.872-70.080-2.944-85.888 28.672-14.208 28.48-36.8 50.624-64 64.128v-305.024c0-105.856-86.144-192-192-192s-192 86.144-192 192 86.144 192 192 192c22.528 0 43.904-4.608 64-11.776v203.776c0 35.328 28.672 64 64 64 103.36 0 196.288-57.408 242.496-149.888 15.808-31.616 3.008-70.080-28.608-85.888z" />
<glyph unicode="&#xe90c;" glyph-name="area-cloud" d="M956.736 383.744c1.536 10.624 3.264 21.184 3.264 32.256 0 123.712-100.288 224-224 224-2.176 0-4.224-0.576-6.4-0.64v0c-120.704-3.52-217.6-101.824-217.6-223.36 0-108.224 76.8-198.592 178.88-219.456-137.472 21.824-242.88 139.84-242.88 283.456 0 125.504 80.768 231.168 192.768 270.592-60.928 50.816-139.2 81.408-224.768 81.408-194.432 0-352-157.568-352-352 0-30.848 4.352-60.672 11.84-89.152-46.144-41.024-75.84-100.224-75.84-166.848 0-123.712 100.288-224 224-224h576c123.712 0 224 100.288 224 224 0 62.592-25.856 119.104-67.264 159.744z" />
<glyph unicode="&#xe90d;" glyph-name="area-data" d="M832 896h-640c-70.72 0-128-57.28-128-128v-640c0-70.72 57.28-128 128-128h640c70.72 0 128 57.28 128 128v640c0 70.72-57.28 128-128 128zM384 256c0-35.328-28.608-64-64-64s-64 28.672-64 64v320c0 35.328 28.608 64 64 64s64-28.672 64-64v-320zM576 256c0-35.328-28.608-64-64-64s-64 28.672-64 64v192c0 35.328 28.608 64 64 64s64-28.672 64-64v-192zM768 256c0-35.328-28.608-64-64-64s-64 28.672-64 64v384c0 35.328 28.608 64 64 64s64-28.672 64-64v-384z" />
<glyph unicode="&#xe90e;" glyph-name="area-del" d="M512 960c-281.6 0-512-230.4-512-512s230.4-512 512-512 512 230.4 512 512-230.4 512-512 512zM736 313.6c25.6-25.6 25.6-64 0-89.6-12.8-12.8-32-19.2-44.8-19.2s-32 6.4-44.8 19.2l-134.4 134.4-134.4-134.4c-12.8-12.8-32-19.2-44.8-19.2s-32 6.4-44.8 19.2c-25.6 25.6-25.6 64 0 89.6l134.4 134.4-134.4 134.4c-25.6 25.6-25.6 64 0 89.6s64 25.6 89.6 0l134.4-134.4 134.4 134.4c25.6 25.6 64 25.6 89.6 0s25.6-64 0-89.6l-134.4-134.4 134.4-134.4z" />
<glyph unicode="&#xe90f;" glyph-name="area-delete" d="M832 768h-128v64c0 35.328-28.672 64-64 64h-256c-35.328 0-64-28.672-64-64v-64h-128c-35.328 0-64-28.672-64-64s28.672-64 64-64h640c35.328 0 64 28.672 64 64s-28.672 64-64 64zM192 128c0-70.72 57.28-128 128-128h384c70.72 0 128 57.28 128 128v448h-640v-448zM576 448h128v-320h-128v320zM320 448h128v-320h-128v320z" />
<glyph unicode="&#xe910;" glyph-name="area-flash" d="M832 896h-640c-70.72 0-128-57.28-128-128v-640c0-70.72 57.28-128 128-128h640c70.72 0 128 57.28 128 128v640c0 70.72-57.28 128-128 128zM640 448c35.328 0 64-28.672 64-64s-28.672-64-64-64h-192v-128c0-35.328-28.672-64-64-64s-64 28.672-64 64v448c0 35.328 28.672 64 64 64h256c35.328 0 64-28.672 64-64s-28.672-64-64-64h-192v-128h192z" />
<glyph unicode="&#xe911;" glyph-name="area-folder-close" d="M64 128c0-70.72 57.28-128 128-128h640c70.72 0 128 57.28 128 128v448h-896v-448zM832 768h-384c0 70.72-57.28 128-128 128h-192c-35.328 0-64-28.672-64-64v-192h896c0 70.72-57.28 128-128 128z" />
<glyph unicode="&#xe912;" glyph-name="area-folder-open" d="M880.192 576h-636.864c-30.016 0-55.936-20.864-62.464-50.112l-99.584-448c-8.832-40 21.568-77.888 62.528-77.888h636.864c30.016 0 56 20.864 62.464 50.112l99.584 448c8.832 40-21.568 77.888-62.528 77.888zM185.92 640h518.080c0 70.72-57.28 128-128 128h-128c0 70.72-57.28 128-128 128h-192c-35.328 0-64-28.672-64-64v-768l58.24 518.4c3.264 32.704 30.784 57.6 63.68 57.6z" />
<glyph unicode="&#xe913;" glyph-name="area-list" d="M256 896h-128c-35.328 0-64-28.672-64-64v-128c0-35.328 28.672-64 64-64h128c35.328 0 64 28.672 64 64v128c0 35.328-28.672 64-64 64zM256 576h-128c-35.328 0-64-28.672-64-64v-128c0-35.328 28.672-64 64-64h128c35.328 0 64 28.672 64 64v128c0 35.328-28.672 64-64 64zM256 256h-128c-35.328 0-64-28.672-64-64v-128c0-35.328 28.672-64 64-64h128c35.328 0 64 28.672 64 64v128c0 35.328-28.672 64-64 64zM896 896h-384c-35.328 0-64-28.672-64-64v-128c0-35.328 28.672-64 64-64h384c35.328 0 64 28.672 64 64v128c0 35.328-28.672 64-64 64zM896 576h-384c-35.328 0-64-28.672-64-64v-128c0-35.328 28.672-64 64-64h384c35.328 0 64 28.672 64 64v128c0 35.328-28.672 64-64 64zM896 256h-384c-35.328 0-64-28.672-64-64v-128c0-35.328 28.672-64 64-64h384c35.328 0 64 28.672 64 64v128c0 35.328-28.672 64-64 64z" />
<glyph unicode="&#xe914;" glyph-name="area-pdf" d="M288 544h-32v-64h32c17.6 0 32 14.336 32 32s-14.4 32-32 32zM544 544h-32v-192h32c17.6 0 32 14.336 32 32v128c0 17.664-14.4 32-32 32zM832 896h-640c-70.72 0-128-57.28-128-128v-640c0-70.72 57.28-128 128-128h640c70.72 0 128 57.28 128 128v640c0 70.72-57.28 128-128 128zM288 416h-32v-96c0-17.664-14.336-32-32-32s-32 14.336-32 32v256c0 17.664 14.336 32 32 32h64c52.928 0 96-43.072 96-96s-43.072-96-96-96zM640 384c0-52.928-43.072-96-96-96h-64c-17.664 0-32 14.336-32 32v256c0 17.664 14.336 32 32 32h64c52.928 0 96-43.072 96-96v-128zM864 480c17.664 0 32-14.336 32-32s-14.336-32-32-32h-96v-96c0-17.664-14.336-32-32-32s-32 14.336-32 32v256c0 17.664 14.336 32 32 32h128c17.664 0 32-14.336 32-32s-14.336-32-32-32h-96v-64h96z" />
<glyph unicode="&#xe915;" glyph-name="area-pic" d="M832 896h-640c-70.72 0-128-57.28-128-128v-640c0-70.72 57.28-128 128-128h640c70.72 0 128 57.28 128 128v640c0 70.72-57.28 128-128 128zM352 704c52.928 0 96-43.072 96-96s-43.072-96-96-96-96 43.072-96 96 43.072 96 96 96zM820.032 410.816l-160-224c-19.968-28.096-58.816-35.328-87.552-16.064l-148.352 98.88-122.88-122.88c-12.48-12.48-28.864-18.752-45.248-18.752s-32.768 6.272-45.248 18.752c-25.024 25.024-25.024 65.472 0 90.496l160 160c21.632 21.632 55.424 24.896 80.768 8l140.416-93.632 124.032 173.568c20.544 28.736 60.544 35.328 89.28 14.912 28.672-20.544 35.392-60.544 14.784-89.28z" />
<glyph unicode="&#xe916;" glyph-name="area-ppt" d="M832 896h-640c-70.72 0-128-57.28-128-128v-640c0-70.72 57.28-128 128-128h640c70.72 0 128 57.28 128 128v640c0 70.72-57.28 128-128 128zM768 384c0-35.328-28.672-64-64-64h-320v-128c0-35.328-28.672-64-64-64s-64 28.672-64 64v448c0 35.328 28.672 64 64 64h384c35.328 0 64-28.672 64-64v-256zM384 576h256v-128h-256v128z" />
<glyph unicode="&#xe917;" glyph-name="area-practice" d="M832 896h-640c-70.72 0-128-57.28-128-128v-640c0-70.72 57.28-128 128-128h640c70.72 0 128 57.28 128 128v640c0 70.72-57.28 128-128 128zM365.44 210.56c-12.16-11.52-28.8-18.56-45.44-18.56s-33.28 7.040-45.44 18.56c-11.52 12.16-18.56 28.16-18.56 45.44s7.040 33.28 18.56 45.44c23.68 23.68 67.2 23.68 90.88 0 11.52-12.16 18.56-28.16 18.56-45.44s-7.040-33.28-18.56-45.44zM365.44 402.56c-12.16-11.52-28.8-18.56-45.44-18.56s-33.28 7.040-45.44 18.56c-11.52 12.16-18.56 28.16-18.56 45.44 0 16.64 7.040 33.28 18.56 45.44 24.32 23.68 66.56 23.68 90.88 0 11.52-12.16 18.56-28.8 18.56-45.44 0-17.28-7.040-33.28-18.56-45.44zM704 192h-192c-35.328 0-64 28.672-64 64s28.672 64 64 64h192c35.328 0 64-28.672 64-64s-28.672-64-64-64zM704 384h-192c-35.328 0-64 28.672-64 64s28.672 64 64 64h192c35.328 0 64-28.672 64-64s-28.672-64-64-64zM704 576h-384c-35.328 0-64 28.672-64 64s28.672 64 64 64h384c35.328 0 64-28.672 64-64s-28.672-64-64-64z" />
<glyph unicode="&#xe918;" glyph-name="area-QnA" d="M512 960c-282.304 0-512-229.696-512-512s229.696-512 512-512 512 229.696 512 512-229.696 512-512 512zM512 112c-26.432 0-48 21.568-48 48s21.568 48 48 48 48-21.568 48-48-21.568-48-48-48zM592.576 401.664c-29.504-13.696-48.576-46.4-48.576-83.456v-30.208c0-17.664-14.336-32-32-32s-32 14.336-32 32v30.208c0 61.888 33.6 117.44 85.696 141.568 57.28 26.496 85.952 88.512 69.824 150.848-11.072 42.88-46.016 77.824-88.896 88.96-40.32 10.368-81.344 2.176-112.96-22.272s-49.664-61.376-49.664-101.312c0-17.664-14.336-32-32-32s-32 14.336-32 32c0 59.84 27.136 115.2 74.496 151.872 47.36 36.736 108.672 49.024 168.128 33.6 65.152-16.832 118.016-69.76 134.848-134.848 23.936-92.736-19.136-185.28-104.896-224.96z" />
<glyph unicode="&#xe919;" glyph-name="area-refresh" d="M512 960c-281.6 0-512-230.4-512-512s230.4-512 512-512 512 230.4 512 512-230.4 512-512 512zM512 192c-140.8 0-256 115.2-256 256 0 19.2 12.8 32 32 32s32-12.8 32-32c0-108.8 83.2-192 192-192s192 83.2 192 192-83.2 192-192 192v-128l-192 160 192 160v-128c140.8 0 256-115.2 256-256s-115.2-256-256-256z" />
<glyph unicode="&#xe91a;" glyph-name="area-selected" d="M800 896h-640c-89.6 0-160-70.4-160-160v-640c0-89.6 70.4-160 160-160h640c89.6 0 160 70.4 160 160v640c0 89.6-70.4 160-160 160zM748.8 499.2l-288-288c-12.8-12.8-25.6-19.2-44.8-19.2s-32 6.4-44.8 19.2l-160 160c-25.6 25.6-25.6 64 0 89.6s64 25.6 89.6 0l115.2-115.2 243.2 243.2c25.6 25.6 64 25.6 89.6 0s25.6-64 0-89.6z" />
<glyph unicode="&#xe91b;" glyph-name="area-tile" d="M384 896h-256c-35.328 0-64-28.672-64-64v-256c0-35.328 28.672-64 64-64h256c35.328 0 64 28.672 64 64v256c0 35.328-28.672 64-64 64zM896 896h-256c-35.328 0-64-28.672-64-64v-256c0-35.328 28.672-64 64-64h256c35.328 0 64 28.672 64 64v256c0 35.328-28.672 64-64 64zM384 384h-256c-35.328 0-64-28.672-64-64v-256c0-35.328 28.672-64 64-64h256c35.328 0 64 28.672 64 64v256c0 35.328-28.672 64-64 64zM896 384h-256c-35.328 0-64-28.672-64-64v-256c0-35.328 28.672-64 64-64h256c35.328 0 64 28.672 64 64v256c0 35.328-28.672 64-64 64z" />
<glyph unicode="&#xe91c;" glyph-name="area-video" d="M832 896h-640c-70.72 0-128-57.28-128-128v-640c0-70.72 57.28-128 128-128h640c70.72 0 128 57.28 128 128v640c0 70.72-57.28 128-128 128zM740.672 395.584l-320-224c-10.944-7.68-23.744-11.584-36.672-11.584-10.112 0-20.224 2.432-29.568 7.232-21.12 11.008-34.432 32.896-34.432 56.768v448c0 23.872 13.312 45.76 34.432 56.768 21.184 10.944 46.656 9.344 66.24-4.352l320-224c17.152-11.968 27.328-31.552 27.328-52.416s-10.176-40.448-27.328-52.416z" />
<glyph unicode="&#xe91d;" glyph-name="area-web" d="M352 576h320v-128h-320v128zM832 896h-640c-70.72 0-128-57.28-128-128v-640c0-70.72 57.28-128 128-128h640c70.72 0 128 57.28 128 128v640c0 70.72-57.28 128-128 128zM800 384c0-35.328-28.672-64-64-64h-160v-64h96c35.328 0 64-28.672 64-64s-28.672-64-64-64h-320c-35.328 0-64 28.672-64 64s28.672 64 64 64h96v64h-160c-35.328 0-64 28.672-64 64v256c0 35.328 28.672 64 64 64h448c35.328 0 64-28.672 64-64v-256z" />
<glyph unicode="&#xe91e;" glyph-name="area-word" d="M832 896h-640c-70.72 0-128-57.28-128-128v-640c0-70.72 57.28-128 128-128h640c70.72 0 128 57.28 128 128v640c0 70.72-57.28 128-128 128zM768 288c0-26.752-16.704-50.688-41.792-60.032-7.232-2.688-14.784-3.968-22.208-3.968-18.304 0-36.16 7.872-48.576 22.336l-143.424 167.296-143.424-167.296c-17.472-20.288-45.824-27.648-70.784-18.368-25.088 9.344-41.792 33.28-41.792 60.032v320c0 35.328 28.672 64 64 64s64-28.672 64-64v-147.008l79.424 92.672c24.32 28.352 72.896 28.352 97.216 0l79.36-92.672v147.008c0 35.328 28.672 64 64 64s64-28.672 64-64v-320z" />
<glyph unicode="&#xe91f;" glyph-name="back" d="M864 448h-627.2l198.4 198.4c12.8 12.8 12.8 38.4 6.4 51.2s-38.4 6.4-51.2 0l-256-256c-6.4-12.8-6.4-38.4 0-51.2l256-256c6.4-6.4 19.2-6.4 25.6-6.4s19.2 0 25.6 6.4c12.8 12.8 12.8 32 0 44.8l-204.8 204.8h627.2c19.2 0 32 12.8 32 32s-12.8 32-32 32z" />
<glyph unicode="&#xe920;" glyph-name="big-data" d="M864 448h-352v352c0 19.2-12.8 32-32 32-230.4 0-416-185.6-416-416s185.6-416 416-416 416 185.6 416 416c0 19.2-12.8 32-32 32zM480 64c-192 0-352 160-352 352 0 185.6 140.8 332.8 320 352v-352c0-19.2 12.8-32 32-32h352c-19.2-179.2-166.4-320-352-320zM608 896c-19.2 0-32-12.8-32-32v-320c0-19.2 12.8-32 32-32h320c19.2 0 32 12.8 32 32 0 192-160 352-352 352zM640 576v256c134.4-12.8 236.8-121.6 256-256h-256z" />
<glyph unicode="&#xe921;" glyph-name="Bold" d="M725.568 477.824c26.432 36.8 42.432 81.536 42.432 130.176 0 123.52-100.48 224-224 224h-288c-35.328 0-64-28.672-64-64v-640c0-35.392 28.672-64 64-64h352c123.52 0 224 100.48 224 224 0 80.256-42.816 150.272-106.432 189.824zM320 704h224c52.928 0 96-43.072 96-96s-43.072-96-96-96h-224v192zM608 192h-288v192h288c52.928 0 96-43.072 96-96s-43.072-96-96-96z" />
<glyph unicode="&#xe922;" glyph-name="book" d="M736 960h-512c-52.928 0-96-43.072-96-96v-832c0-52.928 43.072-96 96-96h512c88.256 0 160 71.744 160 160v704c0 88.192-71.744 160-160 160zM832 96c0-52.928-43.072-96-96-96h-512c-17.664 0-32 14.4-32 32v832c0 17.664 14.336 32 32 32h512c52.928 0 96-43.072 96-96v-704zM352 768c-17.664 0-32-14.336-32-32v-576c0-17.664 14.336-32 32-32s32 14.336 32 32v576c0 17.664-14.336 32-32 32z" />
<glyph unicode="&#xe923;" glyph-name="book-open" d="M928 896h-320c-6.4 0-19.2-6.4-25.6-6.4-57.6-57.6-153.6-57.6-211.2 0 0 0-12.8 6.4-19.2 6.4h-320c-19.2 0-32-12.8-32-32v-832c0-19.2 12.8-32 32-32h307.2c38.4-38.4 89.6-51.2 140.8-51.2s102.4 19.2 140.8 51.2h307.2c19.2 0 32 12.8 32 32v832c0 19.2-12.8 32-32 32zM896 64h-288c-6.4 0-19.2-6.4-25.6-6.4-57.6-57.6-153.6-57.6-211.2 0 0 0-12.8 6.4-19.2 6.4h-288v768h275.2c32-25.6 70.4-44.8 108.8-51.2v-428.8c0-19.2 12.8-32 32-32s32 12.8 32 32v428.8c38.4 6.4 76.8 25.6 108.8 51.2h275.2v-768z" />
<glyph unicode="&#xe924;" glyph-name="bt_edite" d="M652.8 857.6c-12.8 6.4-32 0-44.8-12.8l-384-704c-6.4-12.8 0-32 12.8-44.8 6.4 0 12.8-6.4 12.8-6.4 12.8 0 19.2 6.4 25.6 19.2l384 704c19.2 19.2 12.8 38.4-6.4 44.8zM800 128h-384c-19.2 0-32-12.8-32-32s12.8-32 32-32h384c19.2 0 32 12.8 32 32s-12.8 32-32 32z" />
<glyph unicode="&#xe925;" glyph-name="bt_skin" d="M736 0h-448c-51.2 0-96 44.8-96 96v364.8c0 0-6.4 0-6.4 0-6.4 0-19.2 0-25.6 6.4l-96 76.8c-19.2 12.8-32 38.4-38.4 64 0 25.6 6.4 51.2 19.2 70.4l121.6 153.6c32 38.4 89.6 51.2 128 19.2l44.8-32c6.4-6.4 12.8-6.4 12.8-19.2 25.6-51.2 83.2-96 153.6-96s128 44.8 147.2 108.8c0 6.4 6.4 12.8 12.8 19.2l64 38.4c38.4 25.6 96 12.8 121.6-25.6l121.6-160c12.8-19.2 25.6-44.8 19.2-70.4s-19.2-51.2-38.4-64l-102.4-76.8c-6.4-6.4-19.2-6.4-25.6-6.4v-364.8c6.4-57.6-38.4-102.4-89.6-102.4zM224 576c6.4 0 6.4 0 12.8 0 12.8-6.4 19.2-19.2 19.2-32v-448c0-19.2 12.8-32 32-32h448c19.2 0 32 12.8 32 32v448c0 12.8 6.4 25.6 19.2 32s25.6 0 38.4-12.8l19.2-25.6 76.8 57.6c6.4 6.4 12.8 12.8 12.8 19.2s0 19.2-6.4 25.6l-121.6 160c-12.8 12.8-25.6 19.2-38.4 6.4v0l-51.2-32c-38.4-83.2-121.6-134.4-211.2-134.4s-172.8 57.6-211.2 140.8l-32 19.2c-19.2 12.8-32 6.4-44.8-6.4l-121.6-153.6c-12.8-12.8-6.4-32 6.4-44.8l76.8-57.6 19.2 25.6c6.4 12.8 12.8 12.8 25.6 12.8zM748.8 838.4v0 0z" />
<glyph unicode="&#xe926;" glyph-name="building" d="M928 576h-224v352c0 19.2-12.8 32-32 32h-576c-19.2 0-32-12.8-32-32v-960c0-19.2 12.8-32 32-32h832c19.2 0 32 12.8 32 32v576c0 19.2-12.8 32-32 32zM128 896h512v-896h-512v896zM896 0h-192v512h192v-512zM256 768h64v-64h-64v64zM448 768h64v-64h-64v64zM256 640h64v-64h-64v64zM448 640h64v-64h-64v64zM256 512h64v-64h-64v64zM448 512h64v-64h-64v64zM256 384h64v-64h-64v64zM448 384h64v-64h-64v64z" />
<glyph unicode="&#xe927;" glyph-name="calendar" d="M928 832h-96v96c0 19.2-12.8 32-32 32s-32-12.8-32-32v-96h-512v96c0 19.2-12.8 32-32 32s-32-12.8-32-32v-96h-96c-51.2 0-96-44.8-96-96v-640c0-51.2 44.8-96 96-96h832c51.2 0 96 44.8 96 96v640c0 51.2-44.8 96-96 96zM960 96c0-19.2-12.8-32-32-32h-832c-19.2 0-32 12.8-32 32v640c0 19.2 12.8 32 32 32h832c19.2 0 32-12.8 32-32v-640zM288 640h-64c-19.2 0-32-12.8-32-32v-64c0-19.2 12.8-32 32-32h64c19.2 0 32 12.8 32 32v64c0 19.2-12.8 32-32 32zM544 640h-64c-19.2 0-32-12.8-32-32v-64c0-19.2 12.8-32 32-32h64c19.2 0 32 12.8 32 32v64c0 19.2-12.8 32-32 32zM800 640h-64c-19.2 0-32-12.8-32-32v-64c0-19.2 12.8-32 32-32h64c19.2 0 32 12.8 32 32v64c0 19.2-12.8 32-32 32zM288 384h-64c-19.2 0-32-12.8-32-32v-64c0-19.2 12.8-32 32-32h64c19.2 0 32 12.8 32 32v64c0 19.2-12.8 32-32 32zM544 384h-64c-19.2 0-32-12.8-32-32v-64c0-19.2 12.8-32 32-32h64c19.2 0 32 12.8 32 32v64c0 19.2-12.8 32-32 32zM800 384h-64c-19.2 0-32-12.8-32-32v-64c0-19.2 12.8-32 32-32h64c19.2 0 32 12.8 32 32v64c0 19.2-12.8 32-32 32z" />
<glyph unicode="&#xe928;" glyph-name="c-card" d="M864 896h-704c-89.6 0-160-70.4-160-160v-576c0-89.6 70.4-160 160-160h704c89.6 0 160 70.4 160 160v576c0 89.6-70.4 160-160 160zM160 832h704c51.2 0 96-44.8 96-96v-416h-896v416c0 51.2 44.8 96 96 96zM864 64h-704c-51.2 0-96 44.8-96 96v96h896v-96c0-51.2-44.8-96-96-96z" />
<glyph unicode="&#xe929;" glyph-name="Center-align" d="M160 768h704c17.664 0 32 14.336 32 32s-14.336 32-32 32h-704c-17.664 0-32-14.336-32-32s14.336-32 32-32zM288 704c-17.664 0-32-14.336-32-32s14.336-32 32-32h448c17.664 0 32 14.336 32 32s-14.336 32-32 32h-448zM864 576h-704c-17.664 0-32-14.336-32-32s14.336-32 32-32h704c17.664 0 32 14.336 32 32s-14.336 32-32 32zM736 384c17.664 0 32 14.336 32 32s-14.336 32-32 32h-448c-17.664 0-32-14.336-32-32s14.336-32 32-32h448zM864 320h-704c-17.664 0-32-14.336-32-32s14.336-32 32-32h704c17.664 0 32 14.336 32 32s-14.336 32-32 32zM736 192h-448c-17.664 0-32-14.336-32-32s14.336-32 32-32h448c17.664 0 32 14.336 32 32s-14.336 32-32 32z" />
<glyph unicode="&#xe92a;" glyph-name="check-selected" d="M864 384c-17.664 0-32-14.336-32-32v-192c0-52.928-43.072-96-96-96h-512c-52.928 0-96 43.072-96 96v512c0 52.928 43.072 96 96 96h448c17.664 0 32 14.336 32 32s-14.336 32-32 32h-448c-88.192 0-160-71.808-160-160v-512c0-88.256 71.808-160 160-160h512c88.256 0 160 71.744 160 160v192c0 17.664-14.336 32-32 32zM950.656 758.656c-12.48 12.48-32.768 12.48-45.248 0l-395.84-395.84c-6.656-6.72-15.104-10.112-24.896-9.344-9.408 0.704-17.728 5.184-23.36 12.8l-147.712 196.928c-10.624 14.208-30.656 17.024-44.8 6.4s-17.024-30.656-6.4-44.8l147.712-196.928c16.704-22.336 42.24-36.224 70.016-38.208 2.304-0.192 4.544-0.256 6.784-0.256 25.344 0 49.792 10.048 67.904 28.096l395.84 395.84c12.48 12.544 12.48 32.768 0 45.312z" />
<glyph unicode="&#xe92b;" glyph-name="check-unselected" d="M800 0h-576c-88.192 0-160 71.744-160 160v576c0 88.192 71.808 160 160 160h576c88.256 0 160-71.808 160-160v-576c0-88.256-71.744-160-160-160zM224 832c-52.928 0-96-43.072-96-96v-576c0-52.928 43.072-96 96-96h576c52.928 0 96 43.072 96 96v576c0 52.928-43.072 96-96 96h-576z" />
<glyph unicode="&#xe92c;" glyph-name="choice" d="M934.4 838.4c-19.2 38.4-51.2 57.6-89.6 57.6h-665.6c-38.4 0-70.4-19.2-89.6-57.6-12.8-38.4-6.4-76.8 19.2-102.4l275.2-300.8v-339.2c0-12.8 6.4-19.2 12.8-25.6l192-128c6.4-6.4 12.8-6.4 19.2-6.4s12.8 0 12.8 6.4c12.8 6.4 19.2 19.2 19.2 25.6v467.2l275.2 300.8c25.6 25.6 32 64 19.2 102.4zM870.4 780.8l-288-313.6c-6.4-6.4-6.4-12.8-6.4-19.2v-422.4l-128 83.2v339.2c0 6.4 0 12.8-6.4 19.2l-288 313.6c-12.8 12.8-6.4 25.6-6.4 32s12.8 19.2 32 19.2h665.6c19.2 0 25.6-12.8 32-19.2 0-6.4 6.4-19.2-6.4-32z" />
<glyph unicode="&#xe92d;" glyph-name="city" d="M512 896c249.6 0 448-198.4 448-448s-198.4-448-448-448-448 198.4-448 448 198.4 448 448 448zM512 960c-281.6 0-512-230.4-512-512s230.4-512 512-512 512 230.4 512 512-230.4 512-512 512v0zM486.4 742.4l-57.6-12.8c12.8-25.6 32-57.6 38.4-83.2h-262.4v-57.6h256v-76.8h-192v-288h51.2v230.4h134.4v-300.8h64v300.8h140.8v-160c0-6.4 0-12.8-12.8-12.8s-51.2 0-89.6 0c6.4-12.8 19.2-38.4 19.2-57.6 51.2 0 89.6 0 108.8 12.8 25.6 6.4 32 25.6 32 57.6v217.6h-198.4v76.8h256v57.6h-236.8c-6.4 25.6-32 70.4-51.2 96v0z" />
<glyph unicode="&#xe92e;" glyph-name="class-card" d="M864 896h-704c-89.6 0-160-70.4-160-160v-576c0-89.6 70.4-160 160-160h704c89.6 0 160 70.4 160 160v576c0 89.6-70.4 160-160 160zM960 160c0-51.2-44.8-96-96-96h-704c-51.2 0-96 44.8-96 96v576c0 51.2 44.8 96 96 96h704c51.2 0 96-44.8 96-96v-576zM672 704h-320c-19.2 0-32-12.8-32-32s12.8-32 32-32h320c19.2 0 32 12.8 32 32s-12.8 32-32 32z" />
<glyph unicode="&#xe92f;" glyph-name="cloud_label" d="M965.973 392.704l-421.205 501.76c-30.752 36.38-76.040 59.643-126.787 60.754l-0.189 0.003-241.664 4.779c-0.57 0.011-1.242 0.018-1.915 0.018-49.933 0-91.574-35.503-101.057-82.644l-0.111-0.659-36.864-241.664c-1.308-7.938-2.055-17.085-2.055-26.408 0-42.086 15.234-80.615 40.488-110.371l-0.203 0.246 421.205-501.76c28.373-33.735 69.267-56.146 115.434-60.033l0.62-0.042h15.019c0.124 0 0.271-0.001 0.418-0.001 41.549 0 79.602 14.967 109.063 39.804l-0.254-0.209 208.896 175.445c37.384 31.517 60.969 78.375 60.969 130.742 0 41.825-15.045 80.136-40.019 109.816l0.213-0.259zM897.707 204.288l-208.896-175.445c-17.618-14.748-40.522-23.704-65.519-23.704-31.463 0-59.612 14.19-78.396 36.519l-0.128 0.156-418.475 501.76c-14.767 17.624-23.736 40.543-23.736 65.557 0 5.535 0.439 10.967 1.285 16.264l-0.077-0.584 36.864 238.251c2.71 16.276 16.629 28.548 33.438 28.672h0.013l240.981-4.779c30.723-0.694 58.013-14.815 76.328-36.703l0.131-0.161 421.205-501.76c14.919-17.672 23.986-40.705 23.986-65.856 0-31.279-14.024-59.282-36.128-78.065l-0.146-0.121zM344.064 768.171c-2.899 0.297-6.264 0.467-9.669 0.467-24.741 0-47.392-8.954-64.887-23.797l0.145 0.12c-22.322-18.907-36.396-46.955-36.396-78.29 0-56.554 45.846-102.4 102.4-102.4 53.112 0 96.78 40.436 101.899 92.201l0.034 0.424c0.265 2.764 0.416 5.977 0.416 9.225 0 53.577-41.146 97.543-93.562 102.024l-0.379 0.026zM357.035 639.829c-5.927-5.091-13.692-8.19-22.182-8.19-18.851 0-34.133 15.282-34.133 34.133s15.282 34.133 34.133 34.133c0.118 0 0.237-0.001 0.355-0.002h-0.018c9.406-0.81 17.604-5.401 23.163-12.227l0.048-0.061c4.905-5.869 7.884-13.496 7.884-21.819 0-10.375-4.629-19.669-11.934-25.929l-0.046-0.039z" />
<glyph unicode="&#xe930;" glyph-name="collection" d="M486.4 185.6l-230.4-115.2 44.8 268.8c0 12.8 0 19.2-6.4 25.6l-192 185.6 268.8 38.4c12.8 0 19.2 6.4 25.6 19.2l115.2 243.2 121.6-243.2c6.4-6.4 12.8-19.2 25.6-19.2l268.8-38.4-83.2-76.8c-12.8-12.8-12.8-32 0-44.8s32-12.8 44.8 0l128 121.6c6.4 12.8 6.4 25.6 6.4 32-6.4 12.8-12.8 19.2-25.6 19.2l-313.6 44.8-147.2 288c0 12.8-12.8 19.2-25.6 19.2s-25.6-6.4-25.6-19.2l-140.8-281.6-320-44.8c-12.8-6.4-19.2-12.8-25.6-25.6 0-6.4 0-19.2 12.8-32l230.4-224-51.2-313.6c0-12.8 0-25.6 12.8-32 6.4-6.4 12.8-6.4 19.2-6.4s12.8 0 12.8 6.4l275.2 153.6c12.8 6.4 19.2 25.6 12.8 44.8-6.4 12.8-25.6 19.2-38.4 6.4zM992 192h-160v160c0 19.2-12.8 32-32 32s-32-12.8-32-32v-160h-160c-19.2 0-32-12.8-32-32s12.8-32 32-32h160v-160c0-19.2 12.8-32 32-32s32 12.8 32 32v160h160c19.2 0 32 12.8 32 32s-12.8 32-32 32z" />
<glyph unicode="&#xe931;" glyph-name="comment" d="M864 896h-704c-89.6 0-160-70.4-160-160v-448c0-89.6 70.4-160 160-160h147.2l185.6-185.6c0-6.4 12.8-6.4 19.2-6.4s19.2 0 25.6 6.4l185.6 185.6h147.2c89.6 0 160 70.4 160 160v448c-6.4 89.6-76.8 160-166.4 160zM960 288c0-51.2-44.8-96-96-96h-160c-6.4 0-19.2-6.4-25.6-6.4l-166.4-172.8-166.4 166.4c-6.4 6.4-19.2 12.8-25.6 12.8h-160c-51.2 0-96 44.8-96 96v448c0 51.2 44.8 96 96 96h704c51.2 0 96-44.8 96-96v-448zM192 576h128v-128h-128v128zM448 576h128v-128h-128v128zM704 576h128v-128h-128v128z" />
<glyph unicode="&#xe932;" glyph-name="computer" d="M864 896h-640c-89.6 0-160-70.4-160-160v-384c0-89.6 70.4-160 160-160h288v-128h-224c-19.2 0-32-12.8-32-32s12.8-32 32-32h512c19.2 0 32 12.8 32 32s-12.8 32-32 32h-224v128h288c89.6 0 160 70.4 160 160v384c0 89.6-70.4 160-160 160zM960 352c0-51.2-44.8-96-96-96h-640c-51.2 0-96 44.8-96 96v384c0 51.2 44.8 96 96 96h640c51.2 0 96-44.8 96-96v-384z" />
<glyph unicode="&#xe933;" glyph-name="copy" d="M832 832c-12.8 76.8-76.8 128-160 128h-448c-121.6 0-224-102.4-224-224v-448c0-76.8 57.6-140.8 128-160 12.8-76.8 76.8-128 160-128h512c89.6 0 160 70.4 160 160v512c0 76.8-57.6 140.8-128 160zM64 288v448c0 89.6 70.4 160 160 160h448c44.8 0 76.8-25.6 89.6-64h-473.6c-89.6 0-160-70.4-160-160v-473.6c-38.4 12.8-64 44.8-64 89.6zM896 160c0-51.2-44.8-96-96-96h-512c-51.2 0-96 44.8-96 96v512c0 51.2 44.8 96 96 96h512c51.2 0 96-44.8 96-96v-512z" />
<glyph unicode="&#xe934;" glyph-name="country" d="M512 896c249.6 0 448-198.4 448-448s-198.4-448-448-448-448 198.4-448 448 198.4 448 448 448zM512 960c-281.6 0-512-230.4-512-512s230.4-512 512-512 512 230.4 512 512-230.4 512-512 512v0zM780.8 729.6h-524.8v-556.8h57.6v32h403.2v-32h64v556.8zM313.6 256v416h403.2v-416h-403.2zM678.4 627.2h-320v-51.2h128v-76.8h-108.8v-51.2h115.2v-96h-140.8v-51.2h339.2v51.2h-57.6l38.4 25.6c-12.8 19.2-38.4 44.8-57.6 64l-38.4-19.2c19.2-19.2 44.8-51.2 57.6-70.4h-89.6v96h121.6v51.2h-121.6v76.8h134.4v51.2z" />
<glyph unicode="&#xe935;" glyph-name="county" d="M750.933 686.933c133.12 0 238.933-105.813 238.933-238.933s-105.813-238.933-238.933-238.933h-477.867c-133.12 0-238.933 105.813-238.933 238.933s105.813 238.933 238.933 238.933h477.867zM750.933 721.067h-477.867c-150.187 0-273.067-122.88-273.067-273.067v0c0-150.187 122.88-273.067 273.067-273.067h477.867c150.187 0 273.067 122.88 273.067 273.067v0c0 150.187-122.88 273.067-273.067 273.067v0zM481.28 591.36h-283.307v-286.72h290.133v30.72h-259.413v225.28h252.587v30.72zM413.013 546.987c-13.653-27.307-34.133-51.2-54.613-75.093-30.72 23.893-58.027 44.373-81.92 64.853l-20.48-20.48c23.893-17.067 51.2-40.96 78.507-68.267-27.307-27.307-61.44-51.2-92.16-68.267 6.827-6.827 20.48-17.067 23.893-23.893 30.72 20.48 61.44 44.373 88.747 71.68 27.307-27.307 54.613-51.2 71.68-71.68l23.893 23.893c-17.067 20.48-44.373 44.373-75.093 71.68 23.893 27.307 44.373 54.613 61.44 85.333l-23.893 10.24zM781.653 591.36h-204.8v-170.667h-51.2v-27.307h88.747c-17.067-20.48-37.547-37.547-47.787-44.373s-17.067-13.653-23.893-13.653c3.413-6.827 6.827-23.893 10.24-30.72 13.653 3.413 34.133 6.827 218.453 13.653 6.827-6.827 13.653-17.067 20.48-23.893l27.307 17.067c-17.067 20.48-51.2 54.613-81.92 78.507l-23.893-10.24c10.24-10.24 23.893-20.48 37.547-34.133l-146.773-6.827c17.067 17.067 37.547 34.133 54.613 54.613h170.667v27.307h-44.373v170.667h-3.413zM610.987 536.747v30.72h139.947v-30.72h-139.947zM610.987 478.72v30.72h139.947v-30.72h-139.947zM610.987 420.693v34.133h139.947v-30.72h-139.947v-3.413z" />
<glyph unicode="&#xe936;" glyph-name="curriculum" d="M893.504 556.288c-1.6 3.904-3.968 7.424-6.912 10.368l-319.936 319.936c-2.944 2.944-6.464 5.312-10.368 6.912-3.84 1.6-8 2.496-12.288 2.496h-256c-88.192 0-160-71.808-160-160v-576c0-88.256 71.808-160 160-160h448c88.256 0 160 71.744 160 160v384c0 4.288-0.896 8.448-2.496 12.288zM576 786.752l210.752-210.752h-114.752c-52.928 0-96 43.072-96 96v114.752zM832 160c0-52.928-43.072-96-96-96h-448c-52.928 0-96 43.072-96 96v576c0 52.928 43.072 96 96 96h224v-160c0-88.192 71.744-160 160-160h160v-352z" />
<glyph unicode="&#xe937;" glyph-name="data" d="M928 64h-96v544c0 17.664-14.336 32-32 32s-32-14.336-32-32v-544h-128v736c0 17.664-14.336 32-32 32s-32-14.336-32-32v-736h-128v352c0 17.664-14.336 32-32 32s-32-14.336-32-32v-352h-128v608c0 17.664-14.336 32-32 32s-32-14.336-32-32v-608h-96c-17.664 0-32-14.336-32-32s14.336-32 32-32h832c17.664 0 32 14.336 32 32s-14.336 32-32 32z" />
<glyph unicode="&#xe938;" glyph-name="del" d="M556.8 448l262.4 262.4c12.8 12.8 12.8 32 0 44.8s-32 12.8-44.8 0l-262.4-262.4-262.4 268.8c-12.8 6.4-38.4 6.4-51.2 0s-6.4-38.4 0-51.2l268.8-262.4-262.4-262.4c-12.8-12.8-12.8-32 0-44.8 0-12.8 12.8-12.8 19.2-12.8s19.2 0 25.6 6.4l262.4 268.8 262.4-262.4c6.4-6.4 12.8-6.4 25.6-6.4s19.2 0 25.6 6.4c12.8 12.8 12.8 32 0 44.8l-268.8 262.4z" />
<glyph unicode="&#xe939;" glyph-name="delete" d="M352 832h320c19.2 0 32 12.8 32 32s-12.8 32-32 32h-320c-19.2 0-32-12.8-32-32s12.8-32 32-32zM928 768h-832c-19.2 0-32-12.8-32-32s12.8-32 32-32h96v-672c0-19.2 12.8-32 32-32h576c19.2 0 32 12.8 32 32v672h96c19.2 0 32 12.8 32 32s-12.8 32-32 32zM768 64h-512v640h512v-640zM416 192c19.2 0 32 12.8 32 32v320c0 19.2-12.8 32-32 32s-32-12.8-32-32v-320c0-19.2 12.8-32 32-32zM608 192c19.2 0 32 12.8 32 32v320c0 19.2-12.8 32-32 32s-32-12.8-32-32v-320c0-19.2 12.8-32 32-32z" />
<glyph unicode="&#xe93a;" glyph-name="details" d="M800 896h-576c-89.6 0-160-70.4-160-160v-640c0-89.6 70.4-160 160-160h576c89.6 0 160 70.4 160 160v640c0 89.6-70.4 160-160 160zM896 96c0-51.2-44.8-96-96-96h-576c-51.2 0-96 44.8-96 96v640c0 51.2 44.8 96 96 96h576c51.2 0 96-44.8 96-96v-640zM736 640h-448c-19.2 0-32-12.8-32-32s12.8-32 32-32h448c19.2 0 32 12.8 32 32s-12.8 32-32 32zM736 448h-448c-19.2 0-32-12.8-32-32s12.8-32 32-32h448c19.2 0 32 12.8 32 32s-12.8 32-32 32zM544 256h-256c-19.2 0-32-12.8-32-32s12.8-32 32-32h256c19.2 0 32 12.8 32 32s-12.8 32-32 32z" />
<glyph unicode="&#xe93b;" glyph-name="download" d="M864 320c-17.664 0-32-14.336-32-32v-128c0-52.928-43.072-96-96-96h-512c-52.928 0-96 43.072-96 96v128c0 17.664-14.336 32-32 32s-32-14.336-32-32v-128c0-88.256 71.808-160 160-160h512c88.256 0 160 71.744 160 160v128c0 17.664-14.336 32-32 32zM457.344 201.408c2.944-2.944 6.528-5.312 10.432-6.976 3.904-1.6 8.064-2.432 12.224-2.432s8.32 0.832 12.224 2.432c3.968 1.6 7.488 3.968 10.432 6.976l319.936 319.936c12.48 12.48 12.48 32.768 0 45.248s-32.768 12.48-45.248 0l-265.344-265.344v562.752c0 17.664-14.336 32-32 32s-32-14.336-32-32v-562.752l-265.344 265.408c-12.48 12.48-32.768 12.48-45.248 0s-12.48-32.768 0-45.248l319.936-320z" />
<glyph unicode="&#xe93c;" glyph-name="drop-down" d="M760.32 564.8c-11.584 13.44-31.744 14.976-45.12 3.456l-182.336-156.224c-12.032-10.304-29.632-10.304-41.664 0l-182.4 156.224c-13.376 11.52-33.6 10.048-45.056-3.456-11.584-13.376-9.984-33.6 3.456-45.056l182.336-156.352c18.112-15.488 40.256-23.232 62.464-23.232s44.352 7.68 62.464 23.168l182.336 156.352c13.44 11.52 15.040 31.744 3.52 45.12z" />
<glyph unicode="&#xe93d;" glyph-name="drop-left" d="M476.032 427.136c-10.368 12.096-10.368 29.568 0 41.664l156.288 182.4c11.52 13.376 9.92 33.6-3.52 45.12-13.312 11.456-33.536 9.984-45.12-3.52l-156.288-182.336c-30.976-36.16-30.976-88.768 0-124.928l156.288-182.336c6.4-7.36 15.296-11.2 24.32-11.2 7.36 0 14.784 2.56 20.8 7.68 13.44 11.52 14.976 31.744 3.52 45.12l-156.288 182.336z" />
<glyph unicode="&#xe93e;" glyph-name="drop-right" d="M596.608 510.464l-156.352 182.336c-11.456 13.504-31.68 14.976-45.056 3.456-13.44-11.456-15.040-31.68-3.456-45.056l156.288-182.336c10.368-12.032 10.368-29.632 0-41.664l-156.288-182.336c-11.584-13.44-9.984-33.664 3.456-45.184 6.016-5.12 13.44-7.68 20.8-7.68 9.024 0 17.984 3.84 24.256 11.2l156.352 182.336c30.976 36.16 30.976 88.768 0 124.928z" />
<glyph unicode="&#xe93f;" glyph-name="drop-up" d="M756.8 376.32l-182.336 156.288c-36.16 30.976-88.768 31.040-124.928 0l-182.336-156.288c-13.44-11.52-15.040-31.744-3.456-45.12 11.52-13.44 31.744-14.912 45.12-3.52l182.336 156.288c12.032 10.368 29.632 10.368 41.664 0l182.336-156.352c6.016-5.056 13.44-7.616 20.8-7.616 9.024 0 17.92 3.84 24.32 11.2 11.52 13.376 9.92 33.6-3.52 45.12z" />
<glyph unicode="&#xe940;" glyph-name="earth" d="M512 960c-281.6 0-512-230.4-512-512s230.4-512 512-512 512 230.4 512 512-230.4 512-512 512zM512 0c-38.4 0-89.6 96-115.2 262.4 38.4-6.4 76.8-6.4 115.2-6.4s76.8 0 115.2 6.4c-25.6-166.4-76.8-262.4-115.2-262.4zM512 320c-44.8 0-83.2 0-121.6 6.4-6.4 38.4-6.4 76.8-6.4 121.6s0 83.2 6.4 121.6c38.4 6.4 76.8 6.4 121.6 6.4s83.2 0 121.6-6.4c6.4-38.4 6.4-76.8 6.4-121.6s0-83.2-6.4-121.6c-38.4-6.4-76.8-6.4-121.6-6.4zM326.4 332.8c-166.4 25.6-262.4 76.8-262.4 115.2s96 89.6 262.4 115.2c-6.4-38.4-6.4-76.8-6.4-115.2s0-76.8 6.4-115.2zM512 896c38.4 0 89.6-96 115.2-262.4-38.4 6.4-76.8 6.4-115.2 6.4s-76.8 0-115.2-6.4c25.6 166.4 76.8 262.4 115.2 262.4zM697.6 563.2c166.4-25.6 262.4-76.8 262.4-115.2s-96-89.6-262.4-115.2c6.4 38.4 6.4 76.8 6.4 115.2s0 76.8-6.4 115.2zM947.2 556.8c-64 38.4-153.6 64-256 76.8-12.8 102.4-38.4 192-76.8 256 166.4-44.8 294.4-172.8 332.8-332.8zM403.2 883.2c-38.4-64-64-153.6-76.8-256-102.4-12.8-192-38.4-256-76.8 44.8 166.4 172.8 294.4 332.8 332.8zM76.8 339.2c64-38.4 153.6-64 256-76.8 12.8-102.4 38.4-192 76.8-256-166.4 44.8-294.4 172.8-332.8 332.8zM620.8 12.8c38.4 64 64 153.6 76.8 256 102.4 12.8 192 38.4 256 76.8-44.8-166.4-172.8-294.4-332.8-332.8z" />
<glyph unicode="&#xe941;" glyph-name="edit" d="M864 512c-17.664 0-32-14.336-32-32v-320c0-52.928-43.072-96-96-96h-512c-52.928 0-96 43.072-96 96v512c0 52.928 43.072 96 96 96h320c17.664 0 32 14.336 32 32s-14.336 32-32 32h-320c-88.192 0-160-71.808-160-160v-512c0-88.256 71.808-160 160-160h512c88.256 0 160 71.744 160 160v320c0 17.664-14.336 32-32 32zM950.656 886.656c-12.48 12.48-32.768 12.48-45.248 0l-448-448c-12.48-12.48-12.48-32.768 0-45.248 6.208-6.272 14.4-9.408 22.592-9.408s16.384 3.136 22.656 9.344l448 448c12.48 12.544 12.48 32.768 0 45.312z" />
<glyph unicode="&#xe942;" glyph-name="equipment" d="M864 896h-704c-89.6 0-160-70.4-160-160v-576c0-89.6 70.4-160 160-160h704c89.6 0 160 70.4 160 160v576c0 89.6-70.4 160-160 160zM160 832h704c51.2 0 96-44.8 96-96v-416h-896v416c0 51.2 44.8 96 96 96zM864 64h-704c-51.2 0-96 44.8-96 96v96h896v-96c0-51.2-44.8-96-96-96z" />
<glyph unicode="&#xe943;" glyph-name="especial-full-screen" d="M32 576c17.673 0 32 14.327 32 32v0 128c0 53.019 42.981 96 96 96v0h128c17.673 0 32 14.327 32 32s-14.327 32-32 32v0h-128c-88.366 0-160-71.634-160-160v0-128c0-17.673 14.327-32 32-32v0zM288 64h-128c-53.019 0-96 42.981-96 96v0 128c0 17.673-14.327 32-32 32s-32-14.327-32-32v0-128c0-88.366 71.634-160 160-160v0h128c17.673 0 32 14.327 32 32s-14.327 32-32 32v0zM992 320c-17.673 0-32-14.327-32-32v0-128c0-53.019-42.981-96-96-96v0h-128c-17.673 0-32-14.327-32-32s14.327-32 32-32v0h128c88.366 0 160 71.634 160 160v0 128c0 17.673-14.327 32-32 32v0zM864 896h-128c-17.673 0-32-14.327-32-32s14.327-32 32-32v0h128c53.019 0 96-42.981 96-96v0-128c0-17.673 14.327-32 32-32s32 14.327 32 32v0 128c0 88.366-71.634 160-160 160v0zM256 672v-448c0-17.673 14.327-32 32-32v0h448c17.673 0 32 14.327 32 32v0 448c0 17.673-14.327 32-32 32v0h-448c-17.673 0-32-14.327-32-32v0zM320 640h384v-384h-384z" />
<glyph unicode="&#xe944;" glyph-name="exchange" d="M928 704h-256c-17.664 0-32-14.336-32-32s14.336-32 32-32h96v-160c0-52.928-43.072-96-96-96h-384c-52.928 0-96 43.072-96 96v160h96c17.664 0 32 14.336 32 32s-14.336 32-32 32h-256c-17.664 0-32-14.336-32-32s14.336-32 32-32h96v-160c0-88.256 71.808-160 160-160h135.488l-162.944-271.552c-5.952-9.856-6.080-22.208-0.384-32.192 5.696-10.048 16.32-16.256 27.84-16.256h384c11.52 0 22.208 6.208 27.904 16.256 5.632 9.984 5.504 22.336-0.448 32.192l-162.944 271.552h135.488c88.256 0 160 71.744 160 160v160h96c17.664 0 32 14.336 32 32s-14.336 32-32 32zM615.488 64h-270.976l135.488 225.792 135.488-225.792z" />
<glyph unicode="&#xe945;" glyph-name="export" d="M329.143 45.714h-146.286c-60.594 0-109.714 49.121-109.714 109.714v0 585.143c0 60.594 49.121 109.714 109.714 109.714v0h146.286c20.198 0 36.571 16.374 36.571 36.571s-16.374 36.571-36.571 36.571v0h-146.286c-100.989 0-182.857-81.868-182.857-182.857v0-585.143c0-100.989 81.868-182.857 182.857-182.857v0h146.286c20.198 0 36.571 16.374 36.571 36.571s-16.374 36.571-36.571 36.571v0zM1024 434.103c1.808 4.185 2.859 9.058 2.859 14.176 0 10.195-4.172 19.415-10.901 26.048l-365.718 365.718c-6.645 6.645-15.825 10.755-25.966 10.755-20.28 0-36.721-16.441-36.721-36.721 0-10.14 4.11-19.321 10.755-25.966v0l300.617-303.543h-642.926c-20.198 0-36.571-16.374-36.571-36.571s16.374-36.571 36.571-36.571v0h642.926l-302.811-303.543c-6.645-6.645-10.755-15.825-10.755-25.966 0-20.28 16.441-36.721 36.721-36.721 10.14 0 19.321 4.11 25.966 10.755l365.714 365.714c4.257 3.324 7.706 7.474 10.144 12.228l0.096 0.206z" />
<glyph unicode="&#xe946;" glyph-name="eye" d="M1017.6 467.2c-6.4 12.8-230.4 300.8-505.6 300.8s-499.2-288-505.6-300.8c-6.4-12.8-6.4-25.6 0-38.4s230.4-300.8 505.6-300.8c275.2 0 499.2 288 505.6 300.8s6.4 25.6 0 38.4zM512 192c-204.8 0-384 192-441.6 256 57.6 64 236.8 256 441.6 256s384-192 441.6-256c-57.6-64-236.8-256-441.6-256zM512 608c-89.6 0-160-70.4-160-160s70.4-160 160-160c89.6 0 160 70.4 160 160s-70.4 160-160 160zM512 352c-51.2 0-96 44.8-96 96s44.8 96 96 96 96-44.8 96-96-44.8-96-96-96z" />
<glyph unicode="&#xe947;" glyph-name="faculty-leave" d="M512 0c-249.6 0-448 198.4-448 448s198.4 448 448 448c249.6 0 448-198.4 448-448 0-19.2 12.8-32 32-32s32 12.8 32 32c0 281.6-230.4 512-512 512s-512-230.4-512-512 230.4-512 512-512c19.2 0 32 12.8 32 32s-12.8 32-32 32zM576 736c0 19.2-12.8 32-32 32s-32-12.8-32-32v-288h-224c-19.2 0-32-12.8-32-32s12.8-32 32-32h256c19.2 0 32 12.8 32 32v320zM902.4 230.4c32 32 57.6 70.4 57.6 121.6 0 89.6-70.4 160-160 160s-160-70.4-160-160c0-51.2 25.6-89.6 57.6-121.6-70.4-38.4-121.6-108.8-121.6-198.4v-64c0-19.2 12.8-32 32-32h384c19.2 0 32 12.8 32 32v64c0 89.6-51.2 160-121.6 198.4zM800 448c51.2 0 96-44.8 96-96s-44.8-96-96-96-96 44.8-96 96 44.8 96 96 96zM883.2 166.4l-83.2-64-83.2 64c25.6 12.8 51.2 25.6 83.2 25.6s57.6-6.4 83.2-25.6zM960 0h-320v32c0 32 12.8 64 25.6 89.6l115.2-83.2c6.4-6.4 12.8-6.4 19.2-6.4s12.8 0 19.2 6.4l115.2 83.2c19.2-25.6 25.6-57.6 25.6-89.6v-32z" />
<glyph unicode="&#xe948;" glyph-name="failure" d="M512 960c-281.6 0-512-230.4-512-512s230.4-512 512-512 512 230.4 512 512-230.4 512-512 512zM736 313.6c25.6-25.6 25.6-64 0-89.6-12.8-12.8-32-19.2-44.8-19.2s-32 6.4-44.8 19.2l-134.4 134.4-134.4-134.4c-12.8-12.8-32-19.2-44.8-19.2s-32 6.4-44.8 19.2c-25.6 25.6-25.6 64 0 89.6l134.4 134.4-134.4 134.4c-25.6 25.6-25.6 64 0 89.6s64 25.6 89.6 0l134.4-134.4 134.4 134.4c25.6 25.6 64 25.6 89.6 0s25.6-64 0-89.6l-134.4-134.4 134.4-134.4z" />
<glyph unicode="&#xe949;" glyph-name="file" d="M608 576h-320c-19.2 0-32-12.8-32-32s12.8-32 32-32h320c19.2 0 32 12.8 32 32s-12.8 32-32 32zM608 384h-320c-19.2 0-32-12.8-32-32s12.8-32 32-32h320c19.2 0 32 12.8 32 32s-12.8 32-32 32zM800 960h-512c-51.2 0-96-44.8-96-96v-32h-32c-51.2 0-96-44.8-96-96v-704c0-51.2 44.8-96 96-96h576c51.2 0 96 44.8 96 96v32h32c51.2 0 96 44.8 96 96v640c0 89.6-70.4 160-160 160zM768 32c0-19.2-12.8-32-32-32h-576c-19.2 0-32 12.8-32 32v704c0 19.2 12.8 32 32 32h576c19.2 0 32-12.8 32-32v-704zM896 160c0-19.2-12.8-32-32-32h-32v608c0 51.2-44.8 96-96 96h-480v32c0 19.2 12.8 32 32 32h512c51.2 0 96-44.8 96-96v-640z" />
<glyph unicode="&#xe94a;" glyph-name="flag" d="M957.568 684.224c-4.928 11.968-16.64 19.776-29.568 19.776h-198.464c-31.36 0-61.696 9.216-87.68 26.56l-110.144 73.472c-26.368 17.536-55.488 29.056-86.72 34.24l-343.744 57.28c-10.944 1.792-22.080-2.176-29.312-10.496s-9.792-19.84-6.528-30.464l256-832c4.224-13.76 16.896-22.592 30.592-22.592 3.072 0 6.272 0.448 9.408 1.408 16.896 5.184 26.368 23.040 21.184 40l-90.56 294.336 130.048 74.24c38.976 22.4 85.824 27.072 128.32 12.736 80.32-26.752 167.424-6.272 227.2 53.632l172.992 172.992c9.152 9.216 11.904 22.912 6.976 34.88zM732.352 521.6c-42.56-42.56-104.448-57.216-161.664-38.144-59.776 19.968-125.504 13.44-180.352-17.856l-117.568-67.136-130.944 425.472 292.672-48.768c22.208-3.712 42.944-11.904 61.696-24.384l110.208-73.472c36.544-24.384 79.104-37.312 123.136-37.312h121.216l-118.4-118.4z" />
<glyph unicode="&#xe94b;" glyph-name="flower" d="M896 608v256c0 12.8-6.4 25.6-19.2 25.6s-25.6 6.4-32 0l-166.4-108.8-108.8 166.4c-12.8 19.2-38.4 19.2-51.2 0l-108.8-166.4-166.4 108.8c-12.8 6.4-25.6 6.4-32 0-12.8 0-19.2-12.8-19.2-25.6v-256c0-185.6 140.8-332.8 320-352v-166.4c-76.8 76.8-179.2 128-288 128-12.8 6.4-32-6.4-32-25.6s12.8-32 32-32c108.8-6.4 211.2-57.6 275.2-153.6l12.8-19.2v-19.2c0-19.2 12.8-32 32-32s32 12.8 32 32v19.2l12.8 19.2c64 89.6 166.4 147.2 275.2 153.6 19.2 0 32 12.8 32 32s-19.2 32-32 32c-108.8-6.4-211.2-51.2-288-128v160c179.2 19.2 320 166.4 320 352zM256 608v198.4l140.8-96c19.2-12.8 38.4-6.4 44.8 6.4l102.4 153.6 102.4-153.6c12.8-12.8 32-19.2 44.8-6.4l140.8 96v-198.4c0-160-128-288-288-288s-288 128-288 288z" />
<glyph unicode="&#xe94c;" glyph-name="font" d="M829.632 108.096l-288 704c-9.856 24.064-49.344 24.064-59.264 0l-288-704c-6.656-16.384 1.152-35.072 17.472-41.728s35.072 1.152 41.728 17.472l96.704 236.48c0.64 0 1.152-0.32 1.728-0.32h320c0.576 0 1.088 0.32 1.664 0.32l96.704-236.48c5.056-12.352 17.024-19.84 29.632-19.84 4.032 0 8.128 0.768 12.096 2.368 16.384 6.72 24.192 25.408 17.536 41.728zM376.384 384l135.616 331.52 135.616-331.52h-271.232z" />
<glyph unicode="&#xe94d;" glyph-name="free" d="M768 672c124.8 0 224-99.2 224-224s-99.2-224-224-224h-512c-124.8 0-224 99.2-224 224s99.2 224 224 224h512zM768 704h-512c-140.8 0-256-115.2-256-256v0c0-140.8 115.2-256 256-256h512c140.8 0 256 115.2 256 256v0c0 140.8-115.2 256-256 256v0zM448 323.2c12.8 0 12.8 6.4 16 41.6 6.4-3.2 19.2-9.6 25.6-12.8-3.2-44.8-12.8-57.6-41.6-57.6h-48c-35.2 0-41.6 9.6-41.6 38.4v67.2h-9.6c-16-48-51.2-86.4-131.2-108.8-3.2 6.4-9.6 19.2-16 25.6 70.4 16 99.2 48 115.2 83.2h-83.2v73.6c-3.2-3.2-9.6-6.4-12.8-9.6-6.4 6.4-16 16-22.4 22.4 44.8 28.8 73.6 67.2 89.6 96l32-6.4c0-3.2-3.2-9.6-9.6-16h76.8l19.2-12.8c-6.4-12.8-19.2-32-32-44.8h89.6v-102.4h-76.8v-67.2c0-9.6 3.2-12.8 16-12.8h44.8zM326.4 428.8c3.2 16 6.4 32 6.4 48h-67.2v-48h60.8zM294.4 534.4c-9.6-9.6-16-22.4-28.8-32h76.8c9.6 9.6 16 22.4 22.4 32h-70.4zM364.8 476.8c-3.2-16-3.2-35.2-6.4-48h80v48h-73.6zM684.8 387.2c-12.8-54.4-44.8-83.2-153.6-99.2-3.2 6.4-6.4 19.2-12.8 25.6 99.2 9.6 124.8 28.8 134.4 73.6h32zM566.4 416c-6.4-3.2-16-3.2-25.6-6.4-3.2 6.4-9.6 16-16 22.4 38.4 9.6 60.8 19.2 73.6 32h-54.4c3.2 16 6.4 41.6 9.6 60.8h67.2v19.2h-76.8v19.2h76.8v19.2h25.6v-19.2h44.8v19.2h28.8v-19.2h67.2v-60.8h-67.2v-19.2h86.4c0 0 0-6.4 0-9.6-3.2-22.4-3.2-32-9.6-38.4-3.2-3.2-9.6-6.4-16-6.4s-16 0-28.8 0c0 6.4-3.2 12.8-6.4 19.2 9.6 0 16 0 19.2 0s6.4 0 6.4 3.2c0 3.2 3.2 6.4 3.2 12.8h-57.6v-32h-28.8v32h-54.4c-9.6-16-22.4-28.8-48-41.6h182.4v-83.2h-28.8v60.8h-144v-64h-28.8v80zM576 505.6c0-6.4-3.2-12.8-3.2-19.2h38.4c3.2 6.4 3.2 12.8 3.2 19.2h-38.4zM691.2 505.6h-44.8c0-6.4 0-12.8-3.2-19.2h48v19.2zM646.4 524.8h44.8v19.2h-44.8v-19.2zM688 352c38.4-9.6 92.8-25.6 121.6-38.4l-16-25.6c-25.6 12.8-80 32-121.6 41.6l16 22.4zM716.8 544v-19.2h41.6v19.2h-41.6z" />
<glyph unicode="&#xe94e;" glyph-name="full-screen" d="M448 832c0 38.4-25.6 64-64 64h-256c-6.4 0-19.2 0-25.6-6.4-12.8-6.4-25.6-19.2-32-32-6.4-6.4-6.4-19.2-6.4-25.6v-256c0-38.4 25.6-64 64-64s64 25.6 64 64v102.4l147.2-147.2c12.8-12.8 25.6-19.2 44.8-19.2s32 6.4 44.8 19.2c25.6 25.6 25.6 64 0 89.6l-147.2 147.2h102.4c38.4 0 64 25.6 64 64zM953.6 857.6c-6.4 12.8-19.2 25.6-32 32-6.4 6.4-19.2 6.4-25.6 6.4h-256c-38.4 0-64-25.6-64-64s25.6-64 64-64h102.4l-147.2-147.2c-25.6-25.6-25.6-64 0-89.6 12.8-12.8 25.6-19.2 44.8-19.2s32 6.4 44.8 19.2l147.2 147.2v-102.4c0-38.4 25.6-64 64-64s64 25.6 64 64v256c0 6.4 0 19.2-6.4 25.6zM428.8 364.8c-25.6 25.6-64 25.6-89.6 0l-147.2-147.2v102.4c0 38.4-25.6 64-64 64s-64-25.6-64-64v-256c0-6.4 0-19.2 6.4-25.6 6.4-12.8 19.2-25.6 32-32 6.4-6.4 19.2-6.4 25.6-6.4h256c38.4 0 64 25.6 64 64s-25.6 64-64 64h-102.4l147.2 147.2c25.6 25.6 25.6 64 0 89.6zM896 384c-38.4 0-64-25.6-64-64v-102.4l-147.2 147.2c-25.6 25.6-64 25.6-89.6 0s-25.6-64 0-89.6l147.2-147.2h-102.4c-38.4 0-64-25.6-64-64s25.6-64 64-64h256c6.4 0 19.2 0 25.6 6.4 12.8 6.4 25.6 19.2 32 32 6.4 6.4 6.4 19.2 6.4 25.6v256c0 38.4-25.6 64-64 64z" />
<glyph unicode="&#xe94f;" glyph-name="gate" d="M288 768h-160v64c0 38.4-25.6 64-64 64s-64-25.6-64-64v-832c0-38.4 25.6-64 64-64s64 25.6 64 64h160c89.6 0 160 70.4 160 160v448c0 89.6-70.4 160-160 160zM128 620.8l211.2-236.8-211.2-236.8v473.6zM384 160c0-51.2-44.8-96-96-96h-153.6l249.6 275.2v-179.2zM384 428.8l-249.6 275.2h153.6c51.2 0 96-44.8 96-96v-179.2zM896 896c-38.4 0-64-25.6-64-64v-64h-160c-89.6 0-160-70.4-160-160v-448c0-89.6 70.4-160 160-160h160c0-38.4 25.6-64 64-64s64 25.6 64 64v832c0 38.4-25.6 64-64 64zM576 608c0 51.2 44.8 96 96 96h153.6l-249.6-275.2v179.2zM672 64c-51.2 0-96 44.8-96 96v179.2l249.6-275.2h-153.6zM832 147.2l-211.2 236.8 211.2 236.8v-473.6z" />
<glyph unicode="&#xe950;" glyph-name="gift" d="M928 640h-145.92c30.656 34.048 49.92 78.656 49.92 128 0 105.856-86.144 192-192 192-77.184 0-143.808-45.76-174.336-111.552-28.992 29.376-69.248 47.552-113.664 47.552-88.192 0-160-71.808-160-160 0-36.16 12.48-69.184 32.832-96h-128.832c-52.928 0-96-43.072-96-96v-64c0-42.048 27.392-77.504 65.088-90.432-0.32-1.92-1.088-3.584-1.088-5.568v-288c0-88.256 71.808-160 160-160h576c88.256 0 160 71.744 160 160v288c0 1.984-0.768 3.648-1.088 5.568 37.696 12.928 65.088 48.384 65.088 90.432v64c0 52.928-43.072 96-96 96zM512 768c0 70.592 57.408 128 128 128s128-57.408 128-128-57.408-128-128-128h-128v128zM256 736c0 52.928 43.072 96 96 96s96-43.072 96-96v-96h-96c-52.928 0-96 43.072-96 96zM64 544c0 17.664 14.336 32 32 32h352v-128h-352c-17.664 0-32 14.336-32 32v64zM128 96v288h320v-384h-224c-52.928 0-96 43.072-96 96zM896 96c0-52.928-43.072-96-96-96h-288v384h384v-288zM960 480c0-17.664-14.4-32-32-32h-416v128h416c17.6 0 32-14.336 32-32v-64z" />
<glyph unicode="&#xe951;" glyph-name="good" d="M960 582.4c-32 38.4-76.8 57.6-121.6 57.6h-179.2l12.8 25.6c25.6 64 25.6 134.4 0 198.4-25.6 57.6-83.2 96-140.8 96-83.2 0-147.2-64-147.2-147.2s-32-160-89.6-217.6c-12.8-12.8-32-19.2-44.8-19.2h-217.6c-19.2 0-32-12.8-32-32v-576c0-19.2 12.8-32 32-32h729.6c76.8 0 140.8 51.2 160 128l76.8 384c6.4 44.8-6.4 96-38.4 134.4zM64 512h128v-512h-128v512zM928 460.8l-76.8-384c-6.4-44.8-51.2-76.8-96-76.8h-499.2v512c32 0 57.6 12.8 83.2 38.4 70.4 70.4 108.8 166.4 108.8 262.4 0 44.8 38.4 83.2 83.2 83.2 32 0 64-19.2 76.8-51.2 19.2-51.2 19.2-102.4 0-153.6l-32-70.4c0-12.8 0-19.2 6.4-32 6.4-6.4 12.8-12.8 25.6-12.8h230.4c32 0 57.6-12.8 76.8-32s19.2-57.6 12.8-83.2z" />
<glyph unicode="&#xe952;" glyph-name="guide" d="M992 595.2l-83.2 128c-19.2 32-44.8 44.8-76.8 44.8h-256v96c0 51.2-44.8 96-96 96h-128c-51.2 0-96-44.8-96-96v-96h-160c-51.2 0-96-44.8-96-96v-256c0-51.2 44.8-96 96-96h160v-288c0-51.2 44.8-96 96-96h128c51.2 0 96 44.8 96 96v288h256c32 0 64 12.8 76.8 44.8l83.2 128c25.6 32 25.6 70.4 0 102.4zM320 864c0 19.2 12.8 32 32 32h128c19.2 0 32-12.8 32-32v-96h-192v96zM512 32c0-19.2-12.8-32-32-32h-128c-19.2 0-32 12.8-32 32v288h192v-288zM940.8 524.8l-83.2-128c-6.4-6.4-19.2-12.8-25.6-12.8h-736c-19.2 0-32 12.8-32 32v256c0 19.2 12.8 32 32 32h736c12.8 0 19.2-6.4 25.6-12.8l83.2-128c6.4-12.8 6.4-25.6 0-38.4z" />
<glyph unicode="&#xe953;" glyph-name="heart" d="M838.4 864c-115.2 44.8-236.8 19.2-320-70.4l-6.4-12.8-6.4 12.8c-83.2 89.6-204.8 115.2-320 70.4s-185.6-147.2-185.6-268.8c0-83.2 32-160 89.6-217.6l396.8-371.2c12.8-6.4 19.2-6.4 25.6-6.4s12.8 0 19.2 6.4l396.8 371.2c64 57.6 96 134.4 96 217.6 0 121.6-70.4 224-185.6 268.8zM889.6 428.8l-377.6-352-377.6 352c-44.8 38.4-70.4 102.4-70.4 166.4 0 108.8 76.8 179.2 140.8 211.2 25.6 12.8 57.6 19.2 83.2 19.2 57.6 0 115.2-19.2 166.4-70.4l32-32c12.8-19.2 38.4-19.2 51.2-6.4l32 32c76.8 83.2 179.2 83.2 249.6 57.6 64-32 140.8-102.4 140.8-211.2 0-64-25.6-128-70.4-166.4z" />
<glyph unicode="&#xe954;" glyph-name="home" d="M1011.84 569.152l-434.368 341.504c-36.736 34.24-94.272 34.24-128.896 1.728l-436.352-343.232c-13.888-10.944-16.256-31.040-5.376-44.928s31.040-16.32 44.928-5.376l12.224 9.6v-432.448c0-88.256 71.808-160 160-160h576c88.256 0 160 71.744 160 160v432.448l12.16-9.6c5.888-4.608 12.928-6.848 19.84-6.848 9.408 0 18.816 4.16 25.152 12.224 10.88 13.888 8.512 33.984-5.312 44.928zM384 0v288c0 52.928 43.072 96 96 96h64c52.928 0 96-43.072 96-96v-288h-256zM896 576v-480c0-52.928-43.072-96-96-96h-96v288c0 88.256-71.744 160-160 160h-64c-88.192 0-160-71.744-160-160v-288h-96c-52.928 0-96 43.072-96 96v480c0 0.896-0.448 1.6-0.512 2.432l362.688 285.44c12.224 11.456 31.36 11.392 45.696-1.792l360.64-283.712c-0.064-0.832-0.512-1.536-0.512-2.368z" />
<glyph unicode="&#xe955;" glyph-name="hot" d="M934.4 460.8l-102.4 288c-6.4 12.8-12.8 19.2-19.2 19.2-12.8 0-19.2 0-25.6-6.4l-128-102.4-115.2 281.6c-12.8 25.6-51.2 25.6-57.6 0l-115.2-281.6-128 102.4c-6.4 6.4-19.2 6.4-25.6 6.4-12.8-6.4-19.2-12.8-25.6-19.2l-102.4-288c-19.2-51.2-25.6-102.4-12.8-147.2 32-217.6 217.6-377.6 435.2-377.6s403.2 160 435.2 377.6c12.8 44.8 6.4 96-12.8 147.2zM883.2 320c-25.6-185.6-185.6-320-371.2-320s-345.6 134.4-371.2 320c-6.4 38.4 0 76.8 12.8 115.2l89.6 243.2 128-102.4c0 0 12.8 0 19.2 0 12.8 0 19.2 12.8 19.2 19.2l102.4 249.6 96-243.2c6.4-12.8 12.8-19.2 25.6-25.6 12.8 0 19.2 0 25.6 6.4l128 102.4 89.6-243.2c12.8-38.4 12.8-83.2 6.4-121.6z" />
<glyph unicode="&#xe956;" glyph-name="hourglass" d="M864 128h-32v32c0 121.6-70.4 230.4-179.2 288 108.8 57.6 179.2 166.4 179.2 288v32h32c51.2 0 96 44.8 96 96s-44.8 96-96 96h-704c-51.2 0-96-44.8-96-96s44.8-96 96-96h32v-32c0-121.6 70.4-230.4 179.2-288-108.8-57.6-179.2-166.4-179.2-288v-32h-32c-51.2 0-96-44.8-96-96s44.8-96 96-96h704c51.2 0 96 44.8 96 96s-44.8 96-96 96zM864 0h-704c-19.2 0-32 12.8-32 32s12.8 32 32 32h64c19.2 0 32 12.8 32 32v64c0 96 57.6 185.6 140.8 230.4 25.6 12.8 38.4 32 38.4 57.6s-12.8 44.8-38.4 57.6c-83.2 44.8-140.8 134.4-140.8 230.4v64c0 19.2-12.8 32-32 32h-64c-19.2 0-32 12.8-32 32s12.8 32 32 32h704c19.2 0 32-12.8 32-32s-12.8-32-32-32h-64c-19.2 0-32-12.8-32-32v-64c0-96-57.6-185.6-140.8-230.4-25.6-12.8-38.4-32-38.4-57.6s12.8-44.8 38.4-57.6c83.2-44.8 140.8-134.4 140.8-230.4v-64c0-19.2 12.8-32 32-32h64c19.2 0 32-12.8 32-32s-12.8-32-32-32z" />
<glyph unicode="&#xe957;" glyph-name="icon_cloud" d="M844.8 492.8c0 0-6.4 0 0 0-19.2 166.4-160 294.4-332.8 294.4-140.8 0-262.4-89.6-307.2-211.2-115.2-12.8-204.8-115.2-204.8-236.8s96-236.8 211.2-236.8h640c96 0 172.8 96 172.8 192 0 102.4-83.2 198.4-179.2 198.4zM851.2 172.8h-640c-76.8 0-147.2 76.8-147.2 166.4s64 166.4 147.2 172.8c19.2 0 44.8 19.2 51.2 38.4 38.4 102.4 140.8 172.8 249.6 172.8 140.8 0 249.6-102.4 262.4-243.2 0 0 0 0 0-6.4-76.8-25.6-140.8-102.4-140.8-192 0-19.2 12.8-32 32-32s32 12.8 32 32c0 76.8 57.6 140.8 128 140.8 0 0 6.4 0 6.4 0s0 0 6.4 0c0 0 0 0 0 0s0 0 0 0c64 0 115.2-64 115.2-128 6.4-64-44.8-121.6-102.4-121.6z" />
<glyph unicode="&#xe958;" glyph-name="icon_use" d="M512 960c-281.6 0-512-230.4-512-512s230.4-512 512-512 512 230.4 512 512-230.4 512-512 512zM512 0c-249.6 0-448 198.4-448 448s198.4 448 448 448 448-198.4 448-448-198.4-448-448-448zM672 704h-320c-51.2 0-96-44.8-96-96v-384c0-19.2 12.8-32 32-32s32 12.8 32 32v384c0 19.2 12.8 32 32 32h128v-64h-128c-19.2 0-32-12.8-32-32s12.8-32 32-32h128v-64h-128c-19.2 0-32-12.8-32-32s12.8-32 32-32h128v-160c0-19.2 12.8-32 32-32s32 12.8 32 32v160h128c19.2 0 32 12.8 32 32s-12.8 32-32 32h-128v64h128c19.2 0 32 12.8 32 32s-12.8 32-32 32h-128v64h128c19.2 0 32-12.8 32-32v-358.4l-44.8 32c-12.8 12.8-32 6.4-44.8-6.4s-6.4-32 6.4-44.8l96-64c6.4-6.4 12.8-6.4 19.2-6.4s12.8 0 12.8 6.4c12.8 6.4 19.2 19.2 19.2 25.6v416c0 51.2-44.8 96-96 96z" />
<glyph unicode="&#xe959;" glyph-name="icon-about1" d="M480 960c-262.4 0-480-217.6-480-480s217.6-480 480-480 480 217.6 480 480-217.6 480-480 480zM480 64c-230.4 0-416 185.6-416 416s185.6 416 416 416 416-185.6 416-416-185.6-416-416-416zM480 512c-19.2 0-32-12.8-32-32v-256c0-19.2 12.8-32 32-32s32 12.8 32 32v256c0 19.2-12.8 32-32 32zM480 704c-38.4 0-64-25.6-64-64s25.6-64 64-64 64 25.6 64 64-25.6 64-64 64zM480 640c0 0 0 0 0 0h-32z" />
<glyph unicode="&#xe95a;" glyph-name="id" d="M864 832h-704c-88.192 0-160-71.808-160-160v-512c0-88.256 71.808-160 160-160h704c88.256 0 160 71.744 160 160v512c0 88.192-71.744 160-160 160zM960 160c0-52.928-43.072-96-96-96h-704c-52.928 0-96 43.072-96 96v512c0 52.928 43.072 96 96 96h704c52.928 0 96-43.072 96-96v-512zM224 512h64c17.664 0 32 14.336 32 32s-14.336 32-32 32h-64c-17.664 0-32-14.336-32-32s14.336-32 32-32zM800 576h-384c-17.664 0-32-14.336-32-32s14.336-32 32-32h384c17.664 0 32 14.336 32 32s-14.336 32-32 32zM800 448h-576c-17.664 0-32-14.336-32-32s14.336-32 32-32h576c17.664 0 32 14.336 32 32s-14.336 32-32 32zM800 320h-576c-17.664 0-32-14.336-32-32s14.336-32 32-32h576c17.664 0 32 14.336 32 32s-14.336 32-32 32z" />
<glyph unicode="&#xe95b;" glyph-name="Insert-pictures" d="M800 832h-576c-52.928 0-96-43.072-96-96v-576c0-52.928 43.072-96 96-96h576c52.928 0 96 43.072 96 96v576c0 52.928-43.072 96-96 96zM224 768h576c17.6 0 32-14.336 32-32v-180.736l-231.872-289.856-200.256 114.432c-13.248 7.488-30.144 4.672-40.128-7.040l-167.744-195.648v558.848c0 17.664 14.336 32 32 32zM800 128h-565.888l156.992 183.104 201.024-114.944c13.696-7.68 30.976-4.48 40.896 7.808l198.976 248.768v-292.736c0-17.6-14.4-32-32-32zM384 448c70.592 0 128 57.408 128 128s-57.408 128-128 128-128-57.408-128-128 57.408-128 128-128zM384 640c35.264 0 64-28.736 64-64s-28.736-64-64-64-64 28.736-64 64 28.736 64 64 64z" />
<glyph unicode="&#xe95c;" glyph-name="Invite-teacher" d="M1008.448 571.2c-9.664 5.824-21.696 6.080-31.488 0.832l-80.96-43.2v206.912c0 88.192-71.744 160-160 160h-448c-88.192 0-160-71.808-160-160v-206.912l-80.96 43.2c-9.92 5.248-21.888 4.928-31.488-0.832-9.664-5.824-15.552-16.192-15.552-27.456v-448c0-88.256 71.808-160 160-160h704c88.256 0 160 71.744 160 160v448c0 11.264-5.888 21.632-15.552 27.456zM192 735.744c0 52.928 43.072 96 96 96h448c52.928 0 96-43.072 96-96v-241.088l-304.96-162.624c-9.472-5.056-20.736-4.992-30.080 0.064l-304.96 162.624v241.024zM960 95.744c0-52.928-43.072-96-96-96h-704c-52.928 0-96 43.072-96 96v394.688l402.816-214.848c28.288-15.104 62.016-15.104 90.368 0l402.816 214.848v-394.688zM352 639.744h320c17.664 0 32 14.336 32 32s-14.336 32-32 32h-320c-17.664 0-32-14.336-32-32s14.336-32 32-32zM704 543.744c0 17.664-14.336 32-32 32h-320c-17.664 0-32-14.336-32-32s14.336-32 32-32h320c17.664 0 32 14.336 32 32z" />
<glyph unicode="&#xe95d;" glyph-name="iphone" d="M800 960h-576c-89.6 0-160-70.4-160-160v-704c0-89.6 70.4-160 160-160h576c89.6 0 160 70.4 160 160v704c0 89.6-70.4 160-160 160zM224 896h576c51.2 0 96-44.8 96-96v-480h-768v480c0 51.2 44.8 96 96 96zM800 0h-576c-51.2 0-96 44.8-96 96v160h768v-160c0-51.2-44.8-96-96-96zM576 128c0-35.346-28.654-64-64-64s-64 28.654-64 64c0 35.346 28.654 64 64 64s64-28.654 64-64zM416 768h192c19.2 0 32 12.8 32 32s-12.8 32-32 32h-192c-19.2 0-32-12.8-32-32s12.8-32 32-32z" />
<glyph unicode="&#xe95e;" glyph-name="Italic" d="M736 832h-256c-17.664 0-32-14.336-32-32s14.336-32 32-32h86.080l-174.528-640h-103.552c-17.664 0-32-14.336-32-32s14.336-32 32-32h256c17.664 0 32 14.336 32 32s-14.336 32-32 32h-86.080l174.528 640h103.552c17.664 0 32 14.336 32 32s-14.336 32-32 32z" />
<glyph unicode="&#xe95f;" glyph-name="junior" d="M979.2 256l-275.2 332.8v307.2h32c19.2 0 32 12.8 32 32s-12.8 32-32 32h-448c-19.2 0-32-12.8-32-32s12.8-32 32-32h32v-307.2l-275.2-332.8c-32-38.4-44.8-76.8-44.8-128 0-102.4 89.6-192 198.4-192h633.6c108.8 0 198.4 89.6 198.4 198.4-6.4 44.8-25.6 89.6-51.2 121.6zM377.6 556.8c6.4 6.4 6.4 12.8 6.4 19.2v320h256v-320c0-6.4 0-12.8 6.4-19.2l134.4-160-115.2-44.8c-140.8-51.2-294.4-38.4-428.8 38.4l140.8 166.4zM825.6 0h-627.2c-76.8 0-134.4 57.6-134.4 134.4 0 32 12.8 64 32 83.2l102.4 121.6c89.6-57.6 185.6-83.2 288-83.2 64 0 134.4 12.8 198.4 38.4l140.8 51.2 102.4-128c19.2-25.6 32-51.2 32-83.2 0-76.8-57.6-134.4-134.4-134.4z" />
<glyph unicode="&#xe960;" glyph-name="km" d="M384 352v96h320c0-70.4 57.6-128 128-128s128 57.6 128 128c0 70.4-57.6 128-128 128-44.8 0-89.6-25.6-108.8-64h-339.2v32c0 19.2-12.8 32-32 32h-89.6c19.2 140.8 134.4 256 281.6 256h160c0-70.4 57.6-128 128-128s128 57.6 128 128-57.6 128-128 128c-44.8 0-89.6-25.6-108.8-64h-179.2c-185.6 0-332.8-140.8-352-320h-96c-19.2 0-32-12.8-32-32v-192c0-19.2 12.8-32 32-32h96c19.2-179.2 166.4-320 352-320h179.2c19.2-38.4 64-64 108.8-64 70.4 0 128 57.6 128 128s-57.6 128-128 128-128-57.6-128-128h-160c-147.2 0-268.8 115.2-281.6 256h89.6c19.2 0 32 12.8 32 32zM832 512c38.4 0 64-25.6 64-64s-25.6-64-64-64-64 25.6-64 64c0 38.4 25.6 64 64 64zM832 896c38.4 0 64-25.6 64-64s-25.6-64-64-64-64 25.6-64 64 25.6 64 64 64zM832 128c38.4 0 64-25.6 64-64s-25.6-64-64-64-64 25.6-64 64 25.6 64 64 64zM320 384h-192v128h192v-128z" />
<glyph unicode="&#xe961;" glyph-name="label" d="M864 960h-704c-19.2 0-32-12.8-32-32v-960c0-12.8 6.4-19.2 12.8-25.6 12.8-6.4 19.2-6.4 32 0l339.2 179.2 339.2-185.6c6.4 0 12.8-6.4 12.8-6.4 6.4 0 12.8 0 19.2 6.4 12.8 6.4 12.8 19.2 12.8 25.6v960c0 25.6-12.8 38.4-32 38.4z" />
<glyph unicode="&#xe962;" glyph-name="Left-align" d="M160 768h704c17.664 0 32 14.336 32 32s-14.336 32-32 32h-704c-17.664 0-32-14.336-32-32s14.336-32 32-32zM160 640h448c17.664 0 32 14.336 32 32s-14.336 32-32 32h-448c-17.664 0-32-14.336-32-32s14.336-32 32-32zM864 576h-704c-17.664 0-32-14.336-32-32s14.336-32 32-32h704c17.664 0 32 14.336 32 32s-14.336 32-32 32zM160 384h448c17.664 0 32 14.336 32 32s-14.336 32-32 32h-448c-17.664 0-32-14.336-32-32s14.336-32 32-32zM864 320h-704c-17.664 0-32-14.336-32-32s14.336-32 32-32h704c17.664 0 32 14.336 32 32s-14.336 32-32 32zM608 192h-448c-17.664 0-32-14.336-32-32s14.336-32 32-32h448c17.664 0 32 14.336 32 32s-14.336 32-32 32z" />
<glyph unicode="&#xe963;" d="M544 960c-262.4 0-480-217.6-480-480s217.6-480 480-480 480 217.6 480 480-217.6 480-480 480zM544 64c-230.4 0-416 185.6-416 416s185.6 416 416 416 416-185.6 416-416-185.6-416-416-416z" />
<glyph unicode="&#xe964;" d="M736 512h-307.2l70.4 70.4c12.8 12.8 12.8 38.4 6.4 51.2s-38.4 6.4-51.2 0l-128-128c0 0-6.4-6.4-6.4-12.8s0-19.2 0-25.6c0-6.4 6.4-6.4 6.4-12.8l128-128c6.4-6.4 19.2-6.4 25.6-6.4s19.2 0 25.6 6.4c6.4 12.8 6.4 38.4 0 51.2l-76.8 70.4h307.2c19.2 0 32 12.8 32 32s-12.8 32-32 32z" />
<glyph unicode="&#xe965;" glyph-name="line-del" d="M512 960c-281.6 0-512-230.4-512-512s230.4-512 512-512 512 230.4 512 512-230.4 512-512 512zM512 0c-249.6 0-448 198.4-448 448s198.4 448 448 448c249.6 0 448-198.4 448-448s-198.4-448-448-448zM697.6 633.6c-12.8 12.8-32 12.8-44.8 0l-140.8-140.8-134.4 140.8c-12.8 6.4-38.4 6.4-51.2 0s-6.4-38.4 0-51.2l140.8-134.4-134.4-134.4c-12.8-12.8-12.8-32 0-44.8 0-12.8 12.8-12.8 19.2-12.8s19.2 0 25.6 6.4l134.4 140.8 134.4-134.4c6.4-6.4 12.8-6.4 25.6-6.4s19.2 0 25.6 6.4c12.8 12.8 12.8 32 0 44.8l-140.8 134.4 134.4 134.4c12.8 12.8 12.8 38.4 6.4 51.2z" />
<glyph unicode="&#xe966;" glyph-name="line-r" d="M512 960c-281.6 0-512-230.4-512-512s230.4-512 512-512 512 230.4 512 512-230.4 512-512 512zM512 0c-249.6 0-448 198.4-448 448s198.4 448 448 448c249.6 0 448-198.4 448-448s-198.4-448-448-448zM825.6 601.6c-12.8 12.8-32 12.8-44.8 0l-275.2-275.2c-12.8-12.8-32-12.8-44.8 0l-147.2 147.2c-12.8 12.8-32 12.8-44.8 0s-12.8-38.4-6.4-51.2l147.2-147.2c19.2-19.2 44.8-25.6 70.4-25.6s51.2 6.4 70.4 25.6l275.2 275.2c6.4 12.8 6.4 38.4 0 51.2z" />
<glyph unicode="&#xe967;" glyph-name="link" d="M953.6 761.6l-89.6 89.6c-64 64-166.4 64-224 0l-185.6-179.2c-12.8-12.8-12.8-32 0-44.8s32-12.8 44.8 0l179.2 179.2c38.4 38.4 96 38.4 134.4 0l89.6-89.6c38.4-38.4 38.4-96 0-134.4l-179.2-179.2c-12.8-12.8-12.8-32 0-44.8 6.4-6.4 12.8-6.4 25.6-6.4s19.2 0 25.6 6.4l179.2 179.2c57.6 64 57.6 166.4 0 224zM544 224l-134.4-134.4c-38.4-38.4-96-38.4-134.4 0l-89.6 89.6c-38.4 38.4-38.4 96 0 134.4l134.4 134.4c12.8 12.8 12.8 32 0 44.8s-32 12.8-44.8 0l-140.8-134.4c-64-64-64-166.4 0-224l89.6-89.6c32-32 70.4-44.8 115.2-44.8s83.2 12.8 115.2 44.8l134.4 134.4c12.8 12.8 12.8 32 0 44.8s-32 12.8-44.8 0zM633.6 582.4l-224-224c-12.8-12.8-12.8-32 0-44.8 6.4-6.4 12.8-6.4 25.6-6.4s19.2 0 25.6 6.4l224 224c12.8 12.8 12.8 32 0 44.8s-38.4 12.8-51.2 0z" />
<glyph unicode="&#xe968;" glyph-name="list" d="M416 768h448c17.664 0 32 14.336 32 32s-14.336 32-32 32h-448c-17.664 0-32-14.336-32-32s14.336-32 32-32zM864 512h-448c-17.664 0-32-14.336-32-32s14.336-32 32-32h448c17.664 0 32 14.336 32 32s-14.336 32-32 32zM864 192h-448c-17.664 0-32-14.336-32-32s14.336-32 32-32h448c17.664 0 32 14.336 32 32s-14.336 32-32 32zM320 800c0-53.019-42.981-96-96-96s-96 42.981-96 96c0 53.019 42.981 96 96 96s96-42.981 96-96zM320 480c0-53.019-42.981-96-96-96s-96 42.981-96 96c0 53.019 42.981 96 96 96s96-42.981 96-96zM320 160c0-53.019-42.981-96-96-96s-96 42.981-96 96c0 53.019 42.981 96 96 96s96-42.981 96-96z" />
<glyph unicode="&#xe969;" glyph-name="list-N" d="M416 704h448c17.664 0 32 14.336 32 32s-14.336 32-32 32h-448c-17.664 0-32-14.336-32-32s14.336-32 32-32zM864 448h-448c-17.664 0-32-14.336-32-32s14.336-32 32-32h448c17.664 0 32 14.336 32 32s-14.336 32-32 32zM864 128h-448c-17.664 0-32-14.336-32-32s14.336-32 32-32h448c17.664 0 32 14.336 32 32s-14.336 32-32 32zM224 640c17.664 0 32 14.336 32 32v192c0 17.664-14.336 32-32 32s-32-14.336-32-32v-192c0-17.664 14.336-32 32-32zM288 384h-68.224l94.848 142.272c6.528 9.792 7.168 22.464 1.6 32.832s-16.384 16.896-28.224 16.896h-128c-17.664 0-32-14.336-32-32s14.336-32 32-32h68.224l-94.848-142.272c-6.528-9.792-7.168-22.4-1.6-32.832 5.568-10.368 16.384-16.896 28.224-16.896h128c17.664 0 32 14.336 32 32s-14.336 32-32 32zM288 256h-128c-17.664 0-32-14.336-32-32s14.336-32 32-32h96v-64h-96c-17.664 0-32-14.336-32-32s14.336-32 32-32v0c-17.664 0-32-14.336-32-32s14.336-32 32-32h128c17.664 0 32 14.336 32 32v192c0 17.664-14.336 32-32 32z" />
<glyph unicode="&#xe96a;" glyph-name="loop" d="M1017.6 249.6l-128 128c-12.8 12.8-32 12.8-44.8 0s-12.8-32 0-44.8l70.4-70.4h-64c-128 0-243.2 76.8-300.8 192 76.8 121.6 204.8 192 352 192h19.2l-70.4-70.4c-12.8-12.8-12.8-32 0-44.8-6.4-19.2 6.4-19.2 12.8-19.2s19.2 0 25.6 6.4l128 128c0 0 6.4 6.4 6.4 12.8s0 19.2 0 25.6c0 6.4-6.4 6.4-6.4 12.8l-128 128c-12.8 12.8-32 12.8-44.8 0s-12.8-32 0-44.8l70.4-76.8h-19.2c-153.6 0-294.4-70.4-384-192-70.4 115.2-198.4 192-339.2 192h-140.8c-19.2 0-32-12.8-32-32s12.8-32 32-32h140.8c128 0 243.2-76.8 300.8-192-76.8-115.2-204.8-192-345.6-192h-96c-19.2 0-32-12.8-32-32s12.8-32 32-32h96c153.6 0 294.4 70.4 384 192 70.4-121.6 198.4-192 345.6-192h64l-70.4-70.4c-12.8-12.8-12.8-32 0-44.8 6.4-6.4 12.8-6.4 25.6-6.4s19.2 0 25.6 6.4l128 128c0 0 6.4 6.4 6.4 12.8 6.4 6.4 6.4 19.2 0 25.6-19.2 0-19.2 0-19.2 6.4z" />
<glyph unicode="&#xe96b;" glyph-name="mall" d="M1008.448 571.456c-9.664 5.824-21.696 6.080-31.488 0.832l-80.96-43.2v206.912c0 88.192-71.744 160-160 160h-448c-88.192 0-160-71.808-160-160v-206.912l-80.96 43.136c-9.92 5.312-21.888 5.056-31.488-0.768-9.664-5.824-15.552-16.192-15.552-27.456v-448c0-88.256 71.808-160 160-160h704c88.256 0 160 71.744 160 160v448c0 11.264-5.888 21.632-15.552 27.456zM192 736c0 52.928 43.072 96 96 96h448c52.928 0 96-43.072 96-96v-241.024l-304.96-162.688c-9.344-5.12-20.608-5.184-30.144 0l-304.896 162.688v241.024zM960 96c0-52.928-43.072-96-96-96h-704c-52.928 0-96 43.072-96 96v394.688l402.816-214.848c28.288-15.104 62.080-15.104 90.368 0l402.816 214.848v-394.688zM352 640h320c17.664 0 32 14.336 32 32s-14.336 32-32 32h-320c-17.664 0-32-14.336-32-32s14.336-32 32-32zM704 544c0 17.664-14.336 32-32 32h-320c-17.664 0-32-14.336-32-32s14.336-32 32-32h320c17.664 0 32 14.336 32 32z" />
<glyph unicode="&#xe96c;" glyph-name="maximizing" d="M800 832h-576c-51.2 0-96-44.8-96-96v-576c0-51.2 44.8-96 96-96h576c51.2 0 96 44.8 96 96v576c0 51.2-44.8 96-96 96zM832 160c0-19.2-12.8-32-32-32h-576c-19.2 0-32 12.8-32 32v576c0 19.2 12.8 32 32 32h576c19.2 0 32-12.8 32-32v-576z" />
<glyph unicode="&#xe96d;" glyph-name="menu" d="M224 832h-128c-19.2 0-32-12.8-32-32s12.8-32 32-32h128c19.2 0 32 12.8 32 32s-12.8 32-32 32zM352 768h576c19.2 0 32 12.8 32 32s-12.8 32-32 32h-576c-19.2 0-32-12.8-32-32s12.8-32 32-32zM224 512h-128c-19.2 0-32-12.8-32-32s12.8-32 32-32h128c19.2 0 32 12.8 32 32s-12.8 32-32 32zM928 512h-576c-19.2 0-32-12.8-32-32s12.8-32 32-32h576c19.2 0 32 12.8 32 32s-12.8 32-32 32zM224 192h-128c-19.2 0-32-12.8-32-32s12.8-32 32-32h128c19.2 0 32 12.8 32 32s-12.8 32-32 32zM928 192h-576c-19.2 0-32-12.8-32-32s12.8-32 32-32h576c19.2 0 32 12.8 32 32s-12.8 32-32 32z" />
<glyph unicode="&#xe96e;" glyph-name="message" d="M800 896h-576c-88.192 0-160-71.808-160-160v-576c0-36.544 20.288-69.504 53.056-85.824 13.696-6.848 28.416-10.24 43.072-10.24 20.288 0 40.448 6.528 57.472 19.264l119.488 89.536c16.448 12.48 36.928 19.264 57.6 19.264h405.312c88.256 0 160 71.744 160 160v384c0 88.192-71.744 160-160 160zM896 352c0-52.928-43.072-96-96-96h-405.312c-34.432 0-68.48-11.392-96-32l-119.488-89.536c-9.92-7.424-22.528-8.512-33.536-3.072-11.072 5.568-17.664 16.256-17.664 28.608v576c0 52.928 43.072 96 96 96h576c52.928 0 96-43.072 96-96v-384zM289.28 640c17.664 0 32 14.336 32 32s-14.336 32-32 32h-0.64c-17.664 0-31.68-14.336-31.68-32s14.656-32 32.32-32zM737.28 704h-0.64c-17.664 0-31.68-14.336-31.68-32s14.656-32 32.32-32c17.664 0 32 14.336 32 32s-14.336 32-32 32zM711.936 565.056c-50.432-57.664-123.328-90.688-199.936-90.688s-149.504 33.088-199.936 90.688c-11.712 13.44-31.872 14.72-45.12 3.008-13.312-11.648-14.656-31.872-3.008-45.12 62.592-71.552 153.024-112.576 248.064-112.576s185.472 41.088 248 112.576c11.712 13.312 10.304 33.472-3.008 45.184-13.12 11.584-33.408 10.368-45.056-3.072z" />
<glyph unicode="&#xe96f;" glyph-name="minimizing" d="M800 512h-576c-19.2 0-32-12.8-32-32s12.8-32 32-32h576c19.2 0 32 12.8 32 32s-12.8 32-32 32z" />
<glyph unicode="&#xe970;" glyph-name="mistakes-collection" d="M608 768h-384c-88.192 0-160-71.808-160-160v-448c0-88.256 71.808-160 160-160h384c88.256 0 160 71.744 160 160v448c0 88.192-71.744 160-160 160zM704 160c0-52.928-43.072-96-96-96h-384c-52.928 0-96 43.072-96 96v448c0 52.928 43.072 96 96 96h384c52.928 0 96-43.072 96-96v-448zM672 896h-384c-17.664 0-32-14.336-32-32s14.336-32 32-32h384c88.256 0 160-71.808 160-160v-512c0-17.664 14.336-32 32-32s32 14.336 32 32v512c0 123.52-100.48 224-224 224zM416 640c-17.664 0-32-14.336-32-32v-320c0-17.664 14.336-32 32-32s32 14.336 32 32v320c0 17.664-14.336 32-32 32zM393.6 182.464c-6.4-5.824-9.6-14.144-9.6-22.464s3.2-16 9.6-22.976c6.4-5.824 14.080-9.024 22.4-9.024s16 3.2 22.4 9.6c6.4 5.76 9.6 14.080 9.6 22.4s-3.2 16.64-9.6 22.464c-11.52 12.096-32.64 12.096-44.8 0z" />
<glyph unicode="&#xe971;" glyph-name="monitor" d="M512 960c-281.6 0-512-230.4-512-512s230.4-512 512-512 512 230.4 512 512-230.4 512-512 512zM512 0c-249.6 0-448 198.4-448 448s198.4 448 448 448c115.2 0 211.2-44.8 294.4-108.8l-134.4-134.4c-44.8 32-102.4 51.2-160 51.2-140.8 0-256-115.2-256-256s115.2-256 256-256c38.4 0 70.4 6.4 102.4 19.2 19.2-12.8 38.4-19.2 57.6-19.2 51.2 0 96 44.8 96 96 0 25.6-6.4 44.8-19.2 57.6 12.8 32 19.2 64 19.2 102.4 0 57.6-19.2 115.2-57.6 153.6l134.4 134.4c70.4-76.8 115.2-172.8 115.2-288 0-249.6-198.4-448-448-448zM704 448c0-25.6-6.4-44.8-12.8-64-6.4 0-12.8 0-19.2 0-51.2 0-96-44.8-96-96 0-6.4 0-12.8 0-19.2-19.2-6.4-38.4-12.8-64-12.8-108.8 0-192 83.2-192 192s83.2 192 192 192c38.4 0 76.8-12.8 108.8-38.4l-134.4-128c-12.8-12.8-12.8-32 0-44.8 6.4-12.8 19.2-12.8 25.6-12.8s19.2 0 25.6 6.4l134.4 134.4c19.2-32 32-70.4 32-108.8z" />
<glyph unicode="&#xe972;" glyph-name="more" d="M128 576c-70.4 0-128-57.6-128-128s57.6-128 128-128 128 57.6 128 128c0 70.4-57.6 128-128 128zM128 384c-38.4 0-64 25.6-64 64s25.6 64 64 64 64-25.6 64-64-25.6-64-64-64zM896 576c-70.4 0-128-57.6-128-128s57.6-128 128-128 128 57.6 128 128c0 70.4-57.6 128-128 128zM896 384c-38.4 0-64 25.6-64 64s25.6 64 64 64 64-25.6 64-64-25.6-64-64-64zM512 576c-70.4 0-128-57.6-128-128s57.6-128 128-128c70.4 0 128 57.6 128 128s-57.6 128-128 128zM512 384c-38.4 0-64 25.6-64 64s25.6 64 64 64 64-25.6 64-64-25.6-64-64-64z" />
<glyph unicode="&#xe973;" glyph-name="move" d="M96 576h832c12.8 0 25.6 6.4 32 19.2s0 25.6-6.4 32l-192 192c-12.8 12.8-32 12.8-44.8 0s-12.8-32 0-44.8l134.4-134.4h-755.2c-19.2 0-32-12.8-32-32s12.8-32 32-32zM928 320h-832c-12.8 0-25.6-6.4-32-19.2s0-25.6 6.4-32l192-192c6.4-12.8 19.2-12.8 25.6-12.8s19.2 0 25.6 6.4c12.8 12.8 12.8 32 0 44.8l-140.8 140.8h755.2c19.2 0 32 12.8 32 32s-12.8 32-32 32z" />
<glyph unicode="&#xe974;" glyph-name="mute-new" d="M640 832v-128c32 0 57.6-6.4 83.2-12.8l96 96c-51.2 25.6-115.2 44.8-179.2 44.8zM921.6 704l-89.6-89.6c38.4-44.8 64-102.4 64-166.4 0-140.8-115.2-256-256-256v-128c211.2 0 384 172.8 384 384 0 96-38.4 192-102.4 256zM409.6 70.4c44.8-32 102.4 0 102.4 51.2v172.8l-172.8-172.8 70.4-51.2zM512 774.4c0 51.2-57.6 83.2-102.4 51.2l-262.4-185.6h-147.2v-384h147.2l83.2-57.6 281.6 275.2v300.8zM640 320c70.4 0 128 57.6 128 128 0 25.6-12.8 57.6-25.6 76.8l-102.4-102.4v-102.4z" />
<glyph unicode="&#xe975;" glyph-name="narrow" d="M384 896c-38.4 0-64-25.6-64-64v-102.4l-147.2 147.2c-25.6 25.6-64 25.6-89.6 0s-25.6-64 0-89.6l147.2-147.2h-102.4c-38.4 0-64-25.6-64-64s25.6-64 64-64h256c6.4 0 19.2 0 25.6 6.4 12.8 6.4 25.6 19.2 32 32 6.4 6.4 6.4 19.2 6.4 25.6v256c0 38.4-25.6 64-64 64zM896 640h-102.4l147.2 147.2c25.6 25.6 25.6 64 0 89.6s-64 25.6-89.6 0l-147.2-147.2v102.4c0 38.4-25.6 64-64 64s-64-25.6-64-64v-256c0-6.4 0-19.2 6.4-25.6 6.4-12.8 19.2-25.6 32-32 6.4-6.4 19.2-6.4 25.6-6.4h256c38.4 0 64 25.6 64 64s-25.6 64-64 64zM409.6 377.6c-6.4 6.4-19.2 6.4-25.6 6.4h-256c-38.4 0-64-25.6-64-64s25.6-64 64-64h102.4l-147.2-147.2c-25.6-25.6-25.6-64 0-89.6 12.8-12.8 25.6-19.2 44.8-19.2s32 6.4 44.8 19.2l147.2 147.2v-102.4c0-38.4 25.6-64 64-64s64 25.6 64 64v256c0 6.4 0 19.2-6.4 25.6-6.4 12.8-19.2 25.6-32 32zM960 320c0 38.4-25.6 64-64 64h-256c-6.4 0-19.2 0-25.6-6.4-12.8-6.4-25.6-19.2-32-32-6.4-6.4-6.4-19.2-6.4-25.6v-256c0-38.4 25.6-64 64-64s64 25.6 64 64v102.4l147.2-147.2c12.8-12.8 32-19.2 44.8-19.2s32 6.4 44.8 19.2c25.6 25.6 25.6 64 0 89.6l-147.2 147.2h102.4c38.4 0 64 25.6 64 64z" />
<glyph unicode="&#xe976;" glyph-name="net" d="M512 960c-281.6 0-512-230.4-512-512s230.4-512 512-512 512 230.4 512 512-230.4 512-512 512zM512 0c-38.4 0-89.6 96-115.2 262.4 38.4-6.4 76.8-6.4 115.2-6.4s76.8 0 115.2 6.4c-25.6-166.4-76.8-262.4-115.2-262.4zM512 320c-44.8 0-83.2 0-121.6 6.4-6.4 38.4-6.4 76.8-6.4 121.6s0 83.2 6.4 121.6c38.4 6.4 76.8 6.4 121.6 6.4s83.2 0 121.6-6.4c6.4-38.4 6.4-76.8 6.4-121.6s0-83.2-6.4-121.6c-38.4-6.4-76.8-6.4-121.6-6.4zM326.4 332.8c-166.4 25.6-262.4 76.8-262.4 115.2s96 89.6 262.4 115.2c-6.4-38.4-6.4-76.8-6.4-115.2s0-76.8 6.4-115.2zM512 896c38.4 0 89.6-96 115.2-262.4-38.4 6.4-76.8 6.4-115.2 6.4s-76.8 0-115.2-6.4c25.6 166.4 76.8 262.4 115.2 262.4zM697.6 563.2c166.4-25.6 262.4-76.8 262.4-115.2s-96-89.6-262.4-115.2c6.4 38.4 6.4 76.8 6.4 115.2s0 76.8-6.4 115.2zM947.2 556.8c-64 38.4-153.6 64-256 76.8-12.8 102.4-38.4 192-76.8 256 166.4-44.8 294.4-172.8 332.8-332.8zM403.2 883.2c-38.4-64-64-153.6-76.8-256-102.4-12.8-192-38.4-256-76.8 44.8 166.4 172.8 294.4 332.8 332.8zM76.8 339.2c64-38.4 153.6-64 256-76.8 12.8-102.4 38.4-192 76.8-256-166.4 44.8-294.4 172.8-332.8 332.8zM620.8 12.8c38.4 64 64 153.6 76.8 256 102.4 12.8 192 38.4 256 76.8-44.8-166.4-172.8-294.4-332.8-332.8z" />
<glyph unicode="&#xe977;" glyph-name="none_photo" d="M524.8 428.8c70.4 0 134.4 25.6 185.6 76.8s76.8 115.2 76.8 185.6c0 147.2-115.2 262.4-262.4 262.4s-262.4-108.8-262.4-256 115.2-268.8 262.4-268.8zM915.2 153.6c-64 160-224 268.8-403.2 268.8-172.8 0-332.8-102.4-403.2-262.4-6.4-19.2-12.8-44.8-12.8-70.4 0-89.6 51.2-147.2 134.4-153.6h537.6c19.2 0 108.8 0 147.2 64 25.6 38.4 25.6 89.6 0 153.6z" />
<glyph unicode="&#xe978;" glyph-name="norm" d="M864 896h-96v32c0 19.2-12.8 32-32 32h-448c-19.2 0-32-12.8-32-32v-32h-96c-51.2 0-96-44.8-96-96v-768c0-51.2 44.8-96 96-96h704c51.2 0 96 44.8 96 96v768c0 51.2-44.8 96-96 96zM320 896h384v-64h-384v64zM896 32c0-19.2-12.8-32-32-32h-704c-19.2 0-32 12.8-32 32v768c0 19.2 12.8 32 32 32h96v-32c0-19.2 12.8-32 32-32h448c19.2 0 32 12.8 32 32v32h96c19.2 0 32-12.8 32-32v-768zM736 640h-448c-19.2 0-32-12.8-32-32s12.8-32 32-32h448c19.2 0 32 12.8 32 32s-12.8 32-32 32zM736 448h-448c-19.2 0-32-12.8-32-32s12.8-32 32-32h448c19.2 0 32 12.8 32 32s-12.8 32-32 32zM736 256h-448c-19.2 0-32-12.8-32-32s12.8-32 32-32h448c19.2 0 32 12.8 32 32s-12.8 32-32 32z" />
<glyph unicode="&#xe979;" glyph-name="notification" d="M768 832v96c0 10.624-5.248 20.544-14.080 26.496s-19.968 7.168-29.824 3.2l-228.416-91.328c-57.024-22.784-116.992-34.368-178.304-34.368h-157.376c-88.192 0-160-71.808-160-160v-192c0-78.848 57.344-144.576 132.48-157.632l51.008-306.112c7.744-46.528 47.552-80.256 94.72-80.256h126.208c28.288 0 54.976 12.352 73.28 33.92s26.112 49.92 21.44 77.824l-42.24 253.44 267.2-106.88c9.856-3.968 21.056-2.752 29.824 3.2 8.832 5.952 14.080 15.872 14.080 26.496v96c141.184 0 256 114.816 256 256s-114.816 256-256 256zM704 271.232l-276.096 110.464c-10.752 4.352-22.912 2.368-31.936-4.736-9.024-7.232-13.376-18.816-11.52-30.208l51.584-309.504c1.536-9.408-0.96-18.624-7.168-25.92s-14.848-11.328-24.448-11.328h-126.208c-15.744 0-28.992 11.264-31.552 26.752l-55.104 330.496c-2.56 15.424-15.872 26.752-31.552 26.752-52.928 0-96 43.072-96 96v192c0 52.928 43.072 96 96 96h157.376c69.44 0 137.408 13.12 202.048 38.912l184.576 73.856v-609.536zM768 384v384c105.856 0 192-86.144 192-192s-86.144-192-192-192z" />
<glyph unicode="&#xe97a;" d="M517.12 614.4c-195.072 0-353.28-158.208-353.28-353.28h706.56c0 195.072-158.208 353.28-353.28 353.28z" />
<glyph unicode="&#xe97b;" d="M517.12 537.6c-152.576 0-276.48-123.904-276.48-276.48h552.96c0 152.576-123.904 276.48-276.48 276.48z" />
<glyph unicode="&#xe97c;" d="M517.12 440.32c-99.072 0-179.2-80.128-179.2-179.2h358.4c0 99.072-80.128 179.2-179.2 179.2z" />
<glyph unicode="&#xe97d;" d="M291.84 629.76c-12.8 0-23.040 10.24-23.040 23.040s10.24 23.040 23.040 23.040 23.040-10.24 23.040-23.040-10.24-23.040-23.040-23.040zM291.84 665.6c-7.168 0-12.8-5.632-12.8-12.8s5.632-12.8 12.8-12.8 12.8 5.632 12.8 12.8-5.632 12.8-12.8 12.8z" />
<glyph unicode="&#xe97e;" d="M856.32 522.24c-9.216 0-16.64 7.424-16.64 16.64s7.424 16.64 16.64 16.64 16.64-7.424 16.64-16.64-7.424-16.64-16.64-16.64zM856.32 547.84c-4.864 0-8.96-4.096-8.96-8.96s4.096-8.96 8.96-8.96 8.96 4.096 8.96 8.96-4.096 8.96-8.96 8.96z" />
<glyph unicode="&#xe97f;" d="M176.64 522.24c-2.816 0-5.12 2.304-5.12 5.12v30.72c0 2.816 2.304 5.12 5.12 5.12s5.12-2.304 5.12-5.12v-30.72c0-2.816-2.304-5.12-5.12-5.12z" />
<glyph unicode="&#xe980;" d="M192 537.6h-30.72c-2.816 0-5.12 2.304-5.12 5.12s2.304 5.12 5.12 5.12h30.72c2.816 0 5.12-2.304 5.12-5.12s-2.304-5.12-5.12-5.12z" />
<glyph unicode="&#xe981;" d="M760.32 645.12c-2.816 0-5.12 2.304-5.12 5.12v10.24c0 2.816 2.304 5.12 5.12 5.12s5.12-2.304 5.12-5.12v-10.24c0-2.816-2.304-5.12-5.12-5.12z" />
<glyph unicode="&#xe982;" d="M760.32 593.92c-2.816 0-5.12 2.304-5.12 5.12v10.24c0 2.816 2.304 5.12 5.12 5.12s5.12-2.304 5.12-5.12v-10.24c0-2.816-2.304-5.12-5.12-5.12z" />
<glyph unicode="&#xe983;" d="M791.040 624.64h-10.24c-2.816 0-5.12 2.304-5.12 5.12s2.304 5.12 5.12 5.12h10.24c2.816 0 5.12-2.304 5.12-5.12s-2.304-5.12-5.12-5.12z" />
<glyph unicode="&#xe984;" d="M739.84 624.64h-10.24c-2.816 0-5.12 2.304-5.12 5.12s2.304 5.12 5.12 5.12h10.24c2.816 0 5.12-2.304 5.12-5.12s-2.304-5.12-5.12-5.12z" />
<glyph unicode="&#xe985;" d="M296.96 504.32c-2.816 0-5.12 2.304-5.12 5.12v30.72c0 2.816 2.304 5.12 5.12 5.12s5.12-2.304 5.12-5.12v-30.72c0-2.816-2.304-5.12-5.12-5.12z" />
<glyph unicode="&#xe986;" d="M312.32 519.68h-30.72c-2.816 0-5.12 2.304-5.12 5.12s2.304 5.12 5.12 5.12h30.72c2.816 0 5.12-2.304 5.12-5.12s-2.304-5.12-5.12-5.12z" />
<glyph unicode="&#xe987;" d="M750.080 463.36c-11.264 0-20.48 9.216-20.48 20.48s9.216 20.48 20.48 20.48 20.48-9.216 20.48-20.48-9.216-20.48-20.48-20.48zM750.080 494.080c-5.632 0-10.24-4.608-10.24-10.24s4.608-10.24 10.24-10.24 10.24 4.608 10.24 10.24-4.608 10.24-10.24 10.24z" />
<glyph unicode="&#xe988;" d="M266.24 256h-30.72c-2.816 0-5.12 2.304-5.12 5.12s2.304 5.12 5.12 5.12h30.72c2.816 0 5.12-2.304 5.12-5.12s-2.304-5.12-5.12-5.12z" />
<glyph unicode="&#xe989;" d="M711.68 256h-424.96c-2.816 0-5.12 2.304-5.12 5.12s2.304 5.12 5.12 5.12h424.96c2.816 0 5.12-2.304 5.12-5.12s-2.304-5.12-5.12-5.12z" />
<glyph unicode="&#xe98a;" d="M803.84 256h-71.68c-2.816 0-5.12 2.304-5.12 5.12s2.304 5.12 5.12 5.12h71.68c2.816 0 5.12-2.304 5.12-5.12s-2.304-5.12-5.12-5.12z" />
<glyph unicode="&#xe98b;" d="M678.144 296.96h-327.68c-13.568 0-25.6 12.032-25.6 25.6v245.76c0 13.568 12.032 25.6 25.6 25.6h327.68c13.568 0 25.6-12.032 25.6-25.6v-245.76c0-13.568-12.032-25.6-25.6-25.6z" />
<glyph unicode="&#xe98c;" d="M677.888 295.936h-304.896c-13.568 0-27.392 11.52-27.392 25.088v246.784c0 13.568 13.568 26.88 27.392 26.88h305.152c13.568 0 26.112-12.288 26.112-25.6v-246.784c-0.256-13.568-12.544-26.368-26.368-26.368z" />
<glyph unicode="&#xe98d;" d="M703.744 535.040h-363.52v33.28c0 14.080 11.52 25.6 25.6 25.6h312.32c14.080 0 25.6-11.52 25.6-25.6v-33.28z" />
<glyph unicode="&#xe98e;" d="M678.4 291.84h-327.68c-16.384 0-30.72 14.336-30.72 30.72v245.76c0 16.384 14.336 30.72 30.72 30.72h327.68c16.384 0 30.72-14.336 30.72-30.72v-245.76c0-16.384-14.336-30.72-30.72-30.72zM350.72 588.8c-10.496 0-20.48-9.984-20.48-20.48v-245.76c0-10.496 9.984-20.48 20.48-20.48h327.68c10.496 0 20.48 9.984 20.48 20.48v245.76c0 10.496-9.984 20.48-20.48 20.48h-327.68z" />
<glyph unicode="&#xe98f;" d="M450.56 419.84c0-7.069-5.731-12.8-12.8-12.8s-12.8 5.731-12.8 12.8c0 7.069 5.731 12.8 12.8 12.8s12.8-5.731 12.8-12.8z" />
<glyph unicode="&#xe990;" d="M606.72 419.84c0-7.069-5.731-12.8-12.8-12.8s-12.8 5.731-12.8 12.8c0 7.069 5.731 12.8 12.8 12.8s12.8-5.731 12.8-12.8z" />
<glyph unicode="&#xe991;" d="M476.672 361.216c-0.256 0-0.768 0-1.024 0-2.816 0.512-4.608 3.328-4.096 6.144 4.096 20.224 22.016 34.816 42.752 34.816s38.656-14.592 42.752-34.816c0.512-2.816-1.28-5.376-4.096-6.144-2.816-0.512-5.376 1.28-6.144 4.096-3.072 15.36-16.896 26.624-32.768 26.624s-29.44-11.264-32.768-26.624c-0.256-2.304-2.304-4.096-4.608-4.096z" />
<glyph unicode="&#xe992;" d="M701.44 524.8h-375.040c-2.816 0-5.12 2.304-5.12 5.12s2.304 5.12 5.12 5.12h375.040c2.816 0 5.12-2.304 5.12-5.12s-2.304-5.12-5.12-5.12z" />
<glyph unicode="&#xe993;" d="M601.6 560.64c0-5.655-4.585-10.24-10.24-10.24s-10.24 4.585-10.24 10.24c0 5.655 4.585 10.24 10.24 10.24s10.24-4.585 10.24-10.24z" />
<glyph unicode="&#xe994;" d="M640 560.64c0-5.655-4.585-10.24-10.24-10.24s-10.24 4.585-10.24 10.24c0 5.655 4.585 10.24 10.24 10.24s10.24-4.585 10.24-10.24z" />
<glyph unicode="&#xe995;" d="M678.4 560.64c0-5.655-4.585-10.24-10.24-10.24s-10.24 4.585-10.24 10.24c0 5.655 4.585 10.24 10.24 10.24s10.24-4.585 10.24-10.24z" />
<glyph unicode="&#xe996;" d="M468.48 448c-1.28 0-2.56 0.512-3.584 1.536l-28.16 28.16c-2.048 2.048-2.048 5.12 0 7.168s5.12 2.048 7.168 0l28.16-28.16c2.048-2.048 2.048-5.12 0-7.168-1.024-1.024-2.304-1.536-3.584-1.536z" />
<glyph unicode="&#xe997;" d="M440.32 448c-1.28 0-2.56 0.512-3.584 1.536-2.048 2.048-2.048 5.12 0 7.168l28.16 28.16c2.048 2.048 5.12 2.048 7.168 0s2.048-5.12 0-7.168l-28.16-28.16c-1.024-1.024-2.304-1.536-3.584-1.536z" />
<glyph unicode="&#xe998;" d="M588.8 450.56c-1.28 0-2.56 0.512-3.584 1.536l-28.16 28.16c-2.048 2.048-2.048 5.12 0 7.168s5.12 2.048 7.168 0l28.16-28.16c2.048-2.048 2.048-5.12 0-7.168-1.024-1.024-2.304-1.536-3.584-1.536z" />
<glyph unicode="&#xe999;" d="M560.64 450.56c-1.28 0-2.56 0.512-3.584 1.536-2.048 2.048-2.048 5.12 0 7.168l28.16 28.16c2.048 2.048 5.12 2.048 7.168 0s2.048-5.12 0-7.168l-28.16-28.16c-1.024-1.024-2.304-1.536-3.584-1.536z" />
<glyph unicode="&#xe99a;" glyph-name="Open" d="M800 896h-576c-89.6 0-160-70.4-160-160v-576c0-89.6 70.4-160 160-160h576c89.6 0 160 70.4 160 160v576c0 89.6-70.4 160-160 160zM896 160c0-51.2-44.8-96-96-96h-576c-51.2 0-96 44.8-96 96v576c0 51.2 44.8 96 96 96h576c51.2 0 96-44.8 96-96v-576zM736 512h-448c-38.4 0-64-25.6-64-64s25.6-64 64-64h448c38.4 0 64 25.6 64 64s-25.6 64-64 64z" />
<glyph unicode="&#xe99b;" glyph-name="other" d="M750.933 686.933c133.12 0 238.933-105.813 238.933-238.933s-105.813-238.933-238.933-238.933h-477.867c-133.12 0-238.933 105.813-238.933 238.933s105.813 238.933 238.933 238.933h477.867zM750.933 721.067h-477.867c-150.187 0-273.067-122.88-273.067-273.067v0c0-150.187 122.88-273.067 273.067-273.067h477.867c150.187 0 273.067 122.88 273.067 273.067v0c0 150.187-122.88 273.067-273.067 273.067v0zM443.733 591.36h-30.72v-37.547h-119.467v37.547h-30.72v-37.547h-51.2v-27.307h51.2v-143.36h-58.027v-30.72h300.373v30.72h-61.44v143.36h51.2v30.72h-51.2v34.133zM293.547 499.2v27.307h119.467v-27.307h-119.467zM293.547 441.173v30.72h119.467v-30.72h-119.467zM293.547 383.147v30.72h119.467v-30.72h-119.467zM303.787 349.013c-23.893-17.067-68.267-34.133-105.813-44.373 6.827-6.827 17.067-17.067 20.48-23.893 37.547 10.24 81.92 30.72 112.64 47.787l-27.307 20.48zM399.36 349.013l-23.893-20.48c37.547-13.653 78.507-34.133 102.4-47.787l30.72 20.48c-27.307 13.653-71.68 34.133-109.227 47.787v0zM764.587 591.36h-30.72v-92.16l-40.96-17.067v75.093h-30.72v-85.333l-40.96-17.067 13.653-27.307 30.72 10.24v-102.4c0-40.96 13.653-51.2 58.027-51.2h81.92c40.96 0 47.787 17.067 54.613 64.853-10.24 0-20.48 6.827-30.72 13.653-3.413-37.547-6.827-47.787-27.307-47.787h-78.507c-23.893 0-27.307 3.413-27.307 23.893v112.64l40.96 17.067v-109.227h30.72v122.88l44.373 17.067c0-47.787 0-78.507-3.413-85.333 0-6.827-3.413-10.24-10.24-10.24-3.413 0-13.653 0-23.893 0 3.413-6.827 6.827-20.48 6.827-27.307 3.413 0 3.413 0 6.827 0 10.24 0 20.48 0 30.72 3.413s17.067 10.24 20.48 27.307c3.413 13.653 3.413 58.027 3.413 119.467v3.413l-23.893 6.827-6.827-3.413-3.413-3.413-44.373-17.067v78.507zM614.4 591.36c-17.067-51.2-47.787-98.987-81.92-129.707 3.413-6.827 13.653-23.893 17.067-30.72 10.24 10.24 20.48 20.48 27.307 34.133v-184.32h30.72v232.107c13.653 23.893 23.893 47.787 34.133 71.68l-27.307 6.827z" />
<glyph unicode="&#xe99c;" glyph-name="password" d="M812.8 576h-44.8v-64h44.8c44.8 0 83.2-44.8 83.2-96v-320c0-51.2-38.4-96-83.2-96h-537.6c-44.8 0-83.2 44.8-83.2 96v320c0 51.2 38.4 96 83.2 96h44.8v64h-44.8c-76.8 0-147.2-70.4-147.2-160v-320c0-89.6 64-160 147.2-160h537.6c83.2 0 147.2 70.4 147.2 160v320c0 89.6-64 160-147.2 160zM384 736c0 44.8 19.2 83.2 44.8 115.2 32 25.6 70.4 44.8 115.2 44.8 89.6 0 160-70.4 160-160v-160h64v160c0 121.6-102.4 224-224 224-57.6 0-115.2-25.6-160-64s-64-102.4-64-160v-160h64v160zM384 576h-64v-64h448v64h-64zM544 128v0c19.2 0 32 12.8 32 32v192c0 19.2-12.8 32-32 32v0c-19.2 0-32-12.8-32-32v-192c0-19.2 12.8-32 32-32z" />
<glyph unicode="&#xe99d;" glyph-name="pay" d="M768 672c124.8 0 224-99.2 224-224s-99.2-224-224-224h-512c-124.8 0-224 99.2-224 224s99.2 224 224 224h512zM768 704h-512c-140.8 0-256-115.2-256-256v0c0-140.8 115.2-256 256-256h512c140.8 0 256 115.2 256 256v0c0 140.8-115.2 256-256 256v0zM294.4 588.8h28.8v-288h-28.8v86.4c-54.4-19.2-64-25.6-70.4-28.8-3.2 6.4-6.4 19.2-12.8 25.6 6.4 3.2 12.8 9.6 12.8 22.4v153.6h28.8v-156.8l41.6 12.8v172.8zM476.8 505.6c-9.6-48-22.4-89.6-41.6-121.6 19.2-25.6 38.4-44.8 64-57.6-6.4-6.4-16-16-19.2-25.6-25.6 12.8-44.8 32-60.8 54.4-19.2-22.4-41.6-41.6-67.2-57.6-3.2 6.4-12.8 19.2-19.2 25.6 28.8 12.8 54.4 35.2 70.4 57.6-12.8 22.4-25.6 51.2-35.2 80-6.4-12.8-12.8-22.4-22.4-32-3.2 6.4-16 19.2-22.4 25.6 25.6 32 41.6 83.2 51.2 137.6l28.8-6.4c-3.2-19.2-6.4-38.4-12.8-54.4h102.4v-28.8h-16zM384 499.2c9.6-32 19.2-64 35.2-89.6 12.8 25.6 22.4 57.6 28.8 96h-60.8l-3.2-6.4zM691.2 400c-12.8-54.4-44.8-83.2-153.6-99.2-3.2 6.4-6.4 19.2-12.8 25.6 99.2 9.6 124.8 28.8 134.4 73.6h32zM572.8 428.8c-6.4-3.2-16-6.4-25.6-6.4-3.2 6.4-9.6 16-16 22.4 38.4 9.6 60.8 19.2 73.6 32h-57.6c3.2 16 6.4 41.6 9.6 60.8h64v19.2h-76.8v19.2h76.8v19.2h25.6v-19.2h44.8v19.2h28.8v-19.2h67.2v-60.8h-67.2v-19.2h86.4c0 0 0-6.4 0-9.6-3.2-22.4-3.2-32-9.6-38.4-3.2-3.2-9.6-6.4-16-6.4s-16 0-28.8 0c0 6.4-3.2 12.8-6.4 19.2 9.6 0 16 0 19.2 0s6.4 0 6.4 3.2c0 3.2 3.2 6.4 3.2 12.8h-57.6v-32h-28.8v32h-48c-9.6-16-22.4-28.8-48-41.6h182.4v-83.2h-28.8v60.8h-144v-64h-28.8v80zM582.4 515.2c0-6.4-3.2-12.8-3.2-19.2h38.4c3.2 6.4 3.2 12.8 3.2 19.2h-38.4zM694.4 515.2h-44.8c0-6.4 0-12.8-3.2-19.2h48v19.2zM652.8 537.6h44.8v19.2h-44.8v-19.2zM694.4 364.8c38.4-9.6 92.8-25.6 121.6-38.4l-16-25.6c-25.6 12.8-80 32-121.6 41.6l16 22.4zM723.2 556.8v-19.2h41.6v19.2h-41.6z" />
<glyph unicode="&#xe99e;" glyph-name="pc" d="M864 896h-640c-89.6 0-160-70.4-160-160v-384c0-89.6 70.4-160 160-160h288v-128h-224c-19.2 0-32-12.8-32-32s12.8-32 32-32h512c19.2 0 32 12.8 32 32s-12.8 32-32 32h-224v128h288c89.6 0 160 70.4 160 160v384c0 89.6-70.4 160-160 160zM960 352c0-51.2-44.8-96-96-96h-640c-51.2 0-96 44.8-96 96v384c0 51.2 44.8 96 96 96h640c51.2 0 96-44.8 96-96v-384z" />
<glyph unicode="&#xe99f;" glyph-name="people" d="M633.856 556.864c42.496 35.264 70.144 87.744 70.144 147.136 0 105.856-86.144 192-192 192s-192-86.144-192-192c0-59.392 27.648-111.872 70.144-147.136-78.848-34.752-134.144-113.344-134.144-204.864v-256c0-88.256 71.808-160 160-160h192c88.256 0 160 71.744 160 160v256c0 91.52-55.296 170.112-134.144 204.864zM512 832c70.592 0 128-57.408 128-128s-57.408-128-128-128c-70.592 0-128 57.408-128 128s57.408 128 128 128zM704 96c0-52.928-43.072-96-96-96h-192c-52.928 0-96 43.072-96 96v256c0 88.192 71.808 160 160 160h64c88.256 0 160-71.808 160-160v-256zM902.4 486.080c34.88 29.376 57.6 72.832 57.6 121.92 0 88.192-71.744 160-160 160-17.664 0-32-14.336-32-32s14.336-32 32-32c52.928 0 96-43.072 96-96s-43.072-96-96-96c-17.664 0-32-14.336-32-32s14.336-32 32-32c88.256 0 160-71.744 160-160v-192c0-17.6-14.4-32-32-32h-64c-17.664 0-32-14.336-32-32s14.336-32 32-32h64c52.928 0 96 43.072 96 96v192c0 86.4-49.728 160.704-121.6 198.080zM224 512c-52.928 0-96 43.072-96 96s43.072 96 96 96c17.664 0 32 14.336 32 32s-14.336 32-32 32c-88.192 0-160-71.808-160-160 0-49.088 22.72-92.544 57.664-121.92-71.936-37.376-121.664-111.616-121.664-198.080v-192c0-52.928 43.072-96 96-96h64c17.664 0 32 14.336 32 32s-14.336 32-32 32h-64c-17.664 0-32 14.4-32 32v192c0 88.256 71.808 160 160 160 17.664 0 32 14.336 32 32s-14.336 32-32 32z" />
<glyph unicode="&#xe9a0;" glyph-name="personal" d="M512 960c-282.304 0-512-229.696-512-512 0-126.080 46.080-241.536 121.92-330.816 0.512-0.64 1.088-1.216 1.664-1.856 94.016-109.568 233.088-179.328 388.416-179.328 155.264 0 294.4 69.76 388.352 179.264 0.576 0.64 1.216 1.216 1.728 1.92 75.904 89.344 121.92 204.736 121.92 330.816 0 282.304-229.696 512-512 512zM512 0c-127.616 0-242.624 53.888-324.352 139.84 70.144 111.36 192 180.16 324.352 180.16s254.272-68.8 324.288-180.16c-81.664-85.952-196.672-139.84-324.288-139.84zM320 576c0 105.856 86.144 192 192 192s192-86.144 192-192-86.144-192-192-192-192 86.144-192 192zM878.912 191.744c-56.256 80.64-136.768 139.52-228.672 169.408 70.656 45.632 117.76 124.672 117.76 214.848 0 141.184-114.816 256-256 256s-256-114.816-256-256c0-90.176 47.104-169.216 117.76-214.848-91.904-29.952-172.416-88.768-228.672-169.472-50.944 72.768-81.088 161.024-81.088 256.32 0 247.040 200.96 448 448 448 246.976 0 448-200.96 448-448 0-95.296-30.144-183.552-81.088-256.256z" />
<glyph unicode="&#xe9a1;" glyph-name="pic" d="M800 896h-576c-89.6 0-160-70.4-160-160v-576c0-89.6 70.4-160 160-160h576c89.6 0 160 70.4 160 160v576c0 89.6-70.4 160-160 160zM128 736c0 51.2 44.8 96 96 96h576c51.2 0 96-44.8 96-96v-115.2l-294.4-352-204.8 108.8c-12.8 12.8-25.6 6.4-38.4-6.4l-224-256c0 19.2-6.4 32-6.4 44.8v576zM800 64h-576c-12.8 0-32 6.4-38.4 12.8 0 0 0 0 0 0l204.8 236.8 198.4-115.2c12.8-6.4 32-6.4 38.4 6.4l268.8 313.6v-358.4c0-51.2-44.8-96-96-96zM384 512c70.4 0 128 57.6 128 128s-57.6 128-128 128-128-57.6-128-128 57.6-128 128-128zM384 704c38.4 0 64-25.6 64-64s-25.6-64-64-64-64 25.6-64 64 25.6 64 64 64z" />
<glyph unicode="&#xe9a2;" glyph-name="pic_bt_download" d="M917.333 320c-12.8 0-21.333-8.533-21.333-21.333v-170.667c0-59.733-46.933-106.667-106.667-106.667h-597.333c-59.733 0-106.667 46.933-106.667 106.667v170.667c0 12.8-8.533 21.333-21.333 21.333s-21.333-8.533-21.333-21.333v-170.667c0-81.067 68.267-149.333 149.333-149.333h597.333c81.067 0 149.333 68.267 149.333 149.333v170.667c0 12.8-8.533 21.333-21.333 21.333zM473.6 196.267c4.267-4.267 8.533-4.267 17.067-4.267s12.8 0 17.067 4.267l337.067 337.067c8.533 8.533 8.533 21.333 0 29.867s-21.333 8.533-29.867 0l-302.933-298.667v631.467c0 12.8-8.533 21.333-21.333 21.333s-21.333-8.533-21.333-21.333v-631.467l-302.933 298.667c-8.533 8.533-21.333 8.533-29.867 0s-8.533-21.333 0-29.867l337.067-337.067z" />
<glyph unicode="&#xe9a3;" glyph-name="pic_bt_enlarge" d="M1015.541-24.376l-222.609 178.087h-2.671c87.404 84.758 141.65 203.277 141.65 334.465 0 257.198-208.5 465.697-465.697 465.697s-465.697-208.5-465.697-465.697c0-257.198 208.5-465.697 465.697-465.697 111.366 0 213.602 39.091 293.735 104.301l-0.852-0.672c1.356-3.552 3.49-6.545 6.204-8.88l0.029-0.024 222.609-178.087c3.798-3.087 8.693-4.956 14.024-4.956 12.327 0 22.32 9.993 22.32 22.32 0 6.995-3.218 13.239-8.254 17.331l-0.041 0.032zM44.522 492.522c0 233.592 189.364 422.957 422.957 422.957s422.957-189.364 422.957-422.957c0-233.592-189.364-422.957-422.957-422.957v0c-233.49 0.253-422.703 189.466-422.957 422.932v0.024zM690.087 514.783h-200.348v200.348c0 12.294-9.967 22.261-22.261 22.261s-22.261-9.967-22.261-22.261v0-200.348h-200.348c-12.294 0-22.261-9.967-22.261-22.261s9.967-22.261 22.261-22.261v0h200.348v-200.348c0-12.294 9.967-22.261 22.261-22.261s22.261 9.967 22.261 22.261v0 200.348h200.348c12.294 0 22.261 9.967 22.261 22.261s-9.967 22.261-22.261 22.261v0z" />
<glyph unicode="&#xe9a4;" glyph-name="pic_bt_flip" d="M861.867 874.667c-4.267 17.067-25.6 21.333-38.4 8.533l-51.2-64c-81.067 64-183.467 98.133-285.867 98.133-256 0-465.067-200.533-465.067-448s209.067-448 465.067-448c85.333 0 166.4 21.333 238.933 64 8.533 4.267 12.8 17.067 8.533 29.867-4.267 8.533-17.067 12.8-29.867 8.533-64-38.4-140.8-59.733-217.6-59.733-230.4 0-422.4 183.467-422.4 405.333s187.733 405.333 422.4 405.333c93.867 0 187.733-34.133 264.533-89.6l-55.467-68.267c-12.8-12.8 0-34.133 17.067-34.133l166.4 4.267c12.8 0 21.333 12.8 21.333 25.6l-38.4 162.133z" />
<glyph unicode="&#xe9a5;" glyph-name="pic_bt_narrow" d="M1015.467-25.6l-213.333 170.667c0 0 0 0-4.267 0 85.333 81.067 140.8 196.267 140.8 324.267 0 247.467-200.533 448-448 448s-448-200.533-448-448c0-247.467 200.533-448 448-448 106.667 0 200.533 38.4 277.333 98.133 0-4.267 4.267-4.267 4.267-8.533l213.333-170.667c4.267-4.267 8.533-4.267 12.8-4.267s12.8 4.267 17.067 8.533 8.533 21.333 0 29.867zM85.333 469.333c0 221.867 183.467 405.333 405.333 405.333s405.333-183.467 405.333-405.333-183.467-405.333-405.333-405.333-405.333 183.467-405.333 405.333zM704 490.667h-426.667c-12.8 0-21.333-8.533-21.333-21.333s8.533-21.333 21.333-21.333h426.667c12.8 0 21.333 8.533 21.333 21.333s-8.533 21.333-21.333 21.333z" />
<glyph unicode="&#xe9a6;" glyph-name="plate" d="M416 896h-256c-51.2 0-96-44.8-96-96v-256c0-51.2 44.8-96 96-96h256c51.2 0 96 44.8 96 96v256c0 51.2-44.8 96-96 96zM448 544c0-19.2-12.8-32-32-32h-256c-19.2 0-32 12.8-32 32v256c0 19.2 12.8 32 32 32h256c19.2 0 32-12.8 32-32v-256zM928 896h-256c-51.2 0-96-44.8-96-96v-256c0-51.2 44.8-96 96-96h256c51.2 0 96 44.8 96 96v256c0 51.2-44.8 96-96 96zM960 544c0-19.2-12.8-32-32-32h-256c-19.2 0-32 12.8-32 32v256c0 19.2 12.8 32 32 32h256c19.2 0 32-12.8 32-32v-256zM416 384h-256c-51.2 0-96-44.8-96-96v-256c0-51.2 44.8-96 96-96h256c51.2 0 96 44.8 96 96v256c0 51.2-44.8 96-96 96zM448 32c0-19.2-12.8-32-32-32h-256c-19.2 0-32 12.8-32 32v256c0 19.2 12.8 32 32 32h256c19.2 0 32-12.8 32-32v-256zM928 384h-256c-51.2 0-96-44.8-96-96v-256c0-51.2 44.8-96 96-96h256c51.2 0 96 44.8 96 96v256c0 51.2-44.8 96-96 96zM960 32c0-19.2-12.8-32-32-32h-256c-19.2 0-32 12.8-32 32v256c0 19.2 12.8 32 32 32h256c19.2 0 32-12.8 32-32v-256z" />
<glyph unicode="&#xe9a7;" glyph-name="play" d="M512 960c-281.6 0-512-230.4-512-512s230.4-512 512-512 512 230.4 512 512-230.4 512-512 512zM384 256v384l320-192-320-192z" />
<glyph unicode="&#xe9a8;" glyph-name="play-new" d="M256 89.6c-12.8 0-32 12.8-32 32v652.8c0 19.2 19.2 32 32 32 6.4 0 12.8 0 19.2-6.4l467.2-326.4c6.4-6.4 12.8-12.8 12.8-25.6s-6.4-19.2-12.8-25.6l-467.2-326.4c-6.4 0-12.8-6.4-19.2-6.4 0 0 0 0 0 0zM256 774.4l467.2-326.4-467.2-326.4v652.8zM256 838.4c-32 0-64-25.6-64-64v-652.8c0-38.4 32-64 64-64 12.8 0 25.6 6.4 38.4 12.8l467.2 326.4c38.4 25.6 38.4 76.8 0 102.4l-467.2 326.4c-12.8 6.4-25.6 12.8-38.4 12.8v0z" />
<glyph unicode="&#xe9a9;" glyph-name="position" d="M512 960c-211.2 0-384-172.8-384-384 0-204.8 345.6-614.4 358.4-627.2 6.4-6.4 19.2-12.8 25.6-12.8s19.2 6.4 25.6 12.8c12.8 12.8 358.4 422.4 358.4 627.2 0 211.2-172.8 384-384 384zM512 19.2c-108.8 128-320 416-320 556.8 0 179.2 140.8 320 320 320s320-140.8 320-320c0-140.8-211.2-428.8-320-556.8zM512 768c-108.8 0-192-83.2-192-192s83.2-192 192-192 192 83.2 192 192-83.2 192-192 192zM512 448c-70.4 0-128 57.6-128 128s57.6 128 128 128c70.4 0 128-57.6 128-128s-57.6-128-128-128z" />
<glyph unicode="&#xe9aa;" glyph-name="prohibit" d="M512 960c-281.6 0-512-230.4-512-512s230.4-512 512-512 512 230.4 512 512-230.4 512-512 512zM512 896c115.2 0 211.2-44.8 294.4-108.8l-633.6-633.6c-64 83.2-108.8 179.2-108.8 294.4 0 249.6 198.4 448 448 448zM512 0c-115.2 0-211.2 44.8-294.4 108.8l633.6 633.6c64-83.2 108.8-179.2 108.8-294.4 0-249.6-198.4-448-448-448z" />
<glyph unicode="&#xe9ab;" glyph-name="projection" d="M928 768h-243.2c-38.4 108.8-147.2 192-268.8 192s-230.4-83.2-268.8-192h-51.2c-51.2 0-96-44.8-96-96v-448c0-51.2 44.8-96 96-96h832c51.2 0 96 44.8 96 96v448c0 51.2-44.8 96-96 96zM416 896c121.6 0 224-102.4 224-224s-102.4-224-224-224-224 102.4-224 224 102.4 224 224 224zM960 224c0-19.2-12.8-32-32-32h-832c-19.2 0-32 12.8-32 32v448c0 19.2 12.8 32 32 32h38.4c-6.4-12.8-6.4-19.2-6.4-32 0-160 128-288 288-288s288 128 288 288c0 12.8 0 19.2-6.4 32h230.4c19.2 0 32-12.8 32-32v-448zM832 544c0-17.673-14.327-32-32-32s-32 14.327-32 32c0 17.673 14.327 32 32 32s32-14.327 32-32zM832 352c0-17.673-14.327-32-32-32s-32 14.327-32 32c0 17.673 14.327 32 32 32s32-14.327 32-32zM288 64h-128c-19.2 0-32-12.8-32-32s12.8-32 32-32h128c19.2 0 32 12.8 32 32s-12.8 32-32 32zM864 64h-128c-19.2 0-32-12.8-32-32s12.8-32 32-32h128c19.2 0 32 12.8 32 32s-12.8 32-32 32z" />
</font>
</defs>
</svg>
